<?xml version="1.0" encoding="utf-8" standalone="no"?>
<!DOCTYPE svg PUBLIC "-//W3C//DTD SVG 1.1//EN"
  "http://www.w3.org/Graphics/SVG/1.1/DTD/svg11.dtd">
<svg xmlns:xlink="http://www.w3.org/1999/xlink" width="417.202545pt" height="194.58pt" viewBox="0 0 417.202545 194.58" xmlns="http://www.w3.org/2000/svg" version="1.1">
 <metadata>
  <rdf:RDF xmlns:dc="http://purl.org/dc/elements/1.1/" xmlns:cc="http://creativecommons.org/ns#" xmlns:rdf="http://www.w3.org/1999/02/22-rdf-syntax-ns#">
   <cc:Work>
    <dc:type rdf:resource="http://purl.org/dc/dcmitype/StillImage"/>
    <dc:date>2026-09-30T09:27:05.801191</dc:date>
    <dc:format>image/svg+xml</dc:format>
    <dc:creator>
     <cc:Agent>
      <dc:title>Matplotlib v3.10.8, https://matplotlib.org/</dc:title>
     </cc:Agent>
    </dc:creator>
   </cc:Work>
  </rdf:RDF>
 </metadata>
 <defs>
  <style type="text/css">*{stroke-linejoin: round; stroke-linecap: butt}</style>
 </defs>
 <g id="figure_1">
  <g id="patch_1">
   <path d="M 0 194.58 
L 417.202545 194.58 
L 417.202545 0 
L 0 0 
z
" style="fill: #ffffff"/>
  </g>
  <g id="axes_1">
   <g id="patch_2">
    <path d="M 16.277745 85.03776 
L 64.488945 85.03776 
Q 69.310065 85.03776 69.310065 82.8756 
L 69.310065 50.4432 
Q 69.310065 48.28104 64.488945 48.28104 
L 16.277745 48.28104 
Q 11.456625 48.28104 11.456625 50.4432 
L 11.456625 82.8756 
Q 11.456625 85.03776 16.277745 85.03776 
z
" style="fill: #f5f5f5; stroke: #333333; stroke-linejoin: miter"/>
   </g>
   <g id="patch_3">
    <path d="M 84.576945 85.03776 
L 132.788145 85.03776 
Q 137.609265 85.03776 137.609265 82.8756 
L 137.609265 50.4432 
Q 137.609265 48.28104 132.788145 48.28104 
L 84.576945 48.28104 
Q 79.755825 48.28104 79.755825 50.4432 
L 79.755825 82.8756 
Q 79.755825 85.03776 84.576945 85.03776 
z
" style="fill: #e6e6e6; stroke: #333333; stroke-linejoin: miter"/>
   </g>
   <g id="patch_4">
    <path d="M 152.876145 85.03776 
L 201.087345 85.03776 
Q 205.908465 85.03776 205.908465 82.8756 
L 205.908465 50.4432 
Q 205.908465 48.28104 201.087345 48.28104 
L 152.876145 48.28104 
Q 148.055025 48.28104 148.055025 50.4432 
L 148.055025 82.8756 
Q 148.055025 85.03776 152.876145 85.03776 
z
" style="fill: #e6e6e6; stroke: #333333; stroke-linejoin: miter"/>
   </g>
   <g id="patch_5">
    <path d="M 221.175345 85.03776 
L 269.386545 85.03776 
Q 274.207665 85.03776 274.207665 82.8756 
L 274.207665 50.4432 
Q 274.207665 48.28104 269.386545 48.28104 
L 221.175345 48.28104 
Q 216.354225 48.28104 216.354225 50.4432 
L 216.354225 82.8756 
Q 216.354225 85.03776 221.175345 85.03776 
z
" style="fill: #e6e6e6; stroke: #333333; stroke-linejoin: miter"/>
   </g>
   <g id="patch_6">
    <path d="M 289.474545 85.03776 
L 337.685745 85.03776 
Q 342.506865 85.03776 342.506865 82.8756 
L 342.506865 50.4432 
Q 342.506865 48.28104 337.685745 48.28104 
L 289.474545 48.28104 
Q 284.653425 48.28104 284.653425 50.4432 
L 284.653425 82.8756 
Q 284.653425 85.03776 289.474545 85.03776 
z
" style="fill: #d1d1d1; stroke: #333333; stroke-linejoin: miter"/>
   </g>
   <g id="patch_7">
    <path d="M 357.773745 85.03776 
L 401.967345 85.03776 
Q 406.788465 85.03776 406.788465 82.8756 
L 406.788465 50.4432 
Q 406.788465 48.28104 401.967345 48.28104 
L 357.773745 48.28104 
Q 352.952625 48.28104 352.952625 50.4432 
L 352.952625 82.8756 
Q 352.952625 85.03776 357.773745 85.03776 
z
" style="fill: #e6e6e6; stroke: #333333; stroke-linejoin: miter"/>
   </g>
   <g id="patch_8">
    <path d="M 66.484994 66.6594 
Q 74.530524 66.6594 81.458019 66.6594 
" style="fill: none; stroke: #404040; stroke-linecap: round"/>
    <path d="M 77.858019 64.8594 
L 81.458019 66.6594 
L 77.858019 68.4594 
z
" style="fill: #404040; stroke: #404040; stroke-linecap: round"/>
   </g>
   <g id="patch_9">
    <path d="M 134.784194 66.6594 
Q 142.829724 66.6594 149.757219 66.6594 
" style="fill: none; stroke: #404040; stroke-linecap: round"/>
    <path d="M 146.157219 64.8594 
L 149.757219 66.6594 
L 146.157219 68.4594 
z
" style="fill: #404040; stroke: #404040; stroke-linecap: round"/>
   </g>
   <g id="patch_10">
    <path d="M 203.083394 66.6594 
Q 211.128924 66.6594 218.056419 66.6594 
" style="fill: none; stroke: #404040; stroke-linecap: round"/>
    <path d="M 214.456419 64.8594 
L 218.056419 66.6594 
L 214.456419 68.4594 
z
" style="fill: #404040; stroke: #404040; stroke-linecap: round"/>
   </g>
   <g id="patch_11">
    <path d="M 271.382594 66.6594 
Q 279.428124 66.6594 286.355619 66.6594 
" style="fill: none; stroke: #404040; stroke-linecap: round"/>
    <path d="M 282.755619 64.8594 
L 286.355619 66.6594 
L 282.755619 68.4594 
z
" style="fill: #404040; stroke: #404040; stroke-linecap: round"/>
   </g>
   <g id="patch_12">
    <path d="M 339.681794 66.6594 
Q 347.727324 66.6594 354.654819 66.6594 
" style="fill: none; stroke: #404040; stroke-linecap: round"/>
    <path d="M 351.054819 64.8594 
L 354.654819 66.6594 
L 351.054819 68.4594 
z
" style="fill: #404040; stroke: #404040; stroke-linecap: round"/>
   </g>
   <g id="patch_13">
    <path d="M 16.277745 146.29896 
L 92.612145 146.29896 
Q 97.433265 146.29896 97.433265 144.1368 
L 97.433265 115.308 
Q 97.433265 113.14584 92.612145 113.14584 
L 16.277745 113.14584 
Q 11.456625 113.14584 11.456625 115.308 
L 11.456625 144.1368 
Q 11.456625 146.29896 16.277745 146.29896 
z
" style="fill: #f0f0f0; stroke: #333333; stroke-linejoin: miter"/>
   </g>
   <g id="patch_14">
    <path d="M 56.163043 114.280631 
Q 81.565313 99.090862 106.008019 84.474884 
" style="fill: none; stroke: #404040; stroke-linecap: round"/>
    <path d="M 101.994495 84.777582 
L 106.008019 84.474884 
L 103.842063 87.867322 
z
" style="fill: #404040; stroke: #404040; stroke-linecap: round"/>
   </g>
   <g id="patch_15">
    <path d="M 168.946545 146.29896 
L 249.298545 146.29896 
Q 254.119665 146.29896 254.119665 144.1368 
L 254.119665 115.308 
Q 254.119665 113.14584 249.298545 113.14584 
L 168.946545 113.14584 
Q 164.125425 113.14584 164.125425 115.308 
L 164.125425 144.1368 
Q 164.125425 146.29896 168.946545 146.29896 
z
" style="fill: #cccccc; stroke: #333333; stroke-width: 1.2; stroke-linejoin: miter"/>
   </g>
   <g id="patch_16">
    <path d="M 311.713447 83.593175 
Q 271.394837 99.091995 232.119811 114.189653 
" style="fill: none; stroke: #404040; stroke-linecap: round"/>
    <path d="M 236.125948 114.578072 
L 232.119811 114.189653 
L 234.834228 111.217795 
z
" style="fill: #404040; stroke: #404040; stroke-linecap: round"/>
   </g>
   <g id="patch_17">
    <path d="M 251.183328 129.046175 
Q 314.586367 106.298346 376.937054 83.928082 
" style="fill: none; stroke: #404040; stroke-linecap: round"/>
    <path d="M 372.940678 83.449562 
L 376.937054 83.928082 
L 374.156412 86.83807 
z
" style="fill: #404040; stroke: #404040; stroke-linecap: round"/>
   </g>
   <g id="patch_18">
    <path d="M 285.456945 175.12776 
L 397.949745 175.12776 
Q 402.770865 175.12776 402.770865 172.9656 
L 402.770865 142.335 
Q 402.770865 140.17284 397.949745 140.17284 
L 285.456945 140.17284 
Q 280.635825 140.17284 280.635825 142.335 
L 280.635825 172.9656 
Q 280.635825 175.12776 285.456945 175.12776 
z
" style="fill: #f5f5f5; stroke: #333333; stroke-linejoin: miter"/>
   </g>
   <g id="patch_19">
    <path d="M 251.086162 136.018582 
Q 267.375782 144.135821 282.664725 151.754416 
" style="fill: none; stroke-dasharray: 3.7,1.6; stroke-dashoffset: 0; stroke: #404040; stroke-linecap: round"/>
    <path d="M 280.245411 148.537753 
L 282.664725 151.754416 
L 278.639807 151.75987 
z
" style="fill: #404040; stroke-dasharray: 3.7,1.6; stroke-dashoffset: 0; stroke: #404040; stroke-linecap: round"/>
   </g>
   <g id="patch_20">
    <path d="M 100.647345 180.53316 
L 229.210545 180.53316 
Q 234.031665 180.53316 234.031665 178.371 
L 234.031665 158.5512 
Q 234.031665 156.38904 229.210545 156.38904 
L 100.647345 156.38904 
Q 95.826225 156.38904 95.826225 158.5512 
L 95.826225 178.371 
Q 95.826225 180.53316 100.647345 180.53316 
z
" style="fill: #f0f0f0; stroke: #333333; stroke-linejoin: miter"/>
   </g>
   <g id="patch_21">
    <path d="M 176.667625 84.847858 
Q 170.955551 120.71211 165.419329 155.472243 
" style="fill: none; stroke-dasharray: 3.7,1.6; stroke-dashoffset: 0; stroke: #404040; stroke-linecap: round"/>
    <path d="M 167.763157 152.200169 
L 165.419329 155.472243 
L 164.207966 151.633936 
z
" style="fill: #404040; stroke-dasharray: 3.7,1.6; stroke-dashoffset: 0; stroke: #404040; stroke-linecap: round"/>
   </g>
   <g id="text_1">
    <!-- FinQA test -->
    <g transform="translate(24.115935 64.856298) scale(0.0635 -0.0635)">
     <defs>
      <path id="DejaVuSans-46" d="M 628 4666 
L 3309 4666 
L 3309 4134 
L 1259 4134 
L 1259 2759 
L 3109 2759 
L 3109 2228 
L 1259 2228 
L 1259 0 
L 628 0 
L 628 4666 
z
" transform="scale(0.015625)"/>
      <path id="DejaVuSans-69" d="M 603 3500 
L 1178 3500 
L 1178 0 
L 603 0 
L 603 3500 
z
M 603 4863 
L 1178 4863 
L 1178 4134 
L 603 4134 
L 603 4863 
z
" transform="scale(0.015625)"/>
      <path id="DejaVuSans-6e" d="M 3513 2113 
L 3513 0 
L 2938 0 
L 2938 2094 
Q 2938 2591 2744 2837 
Q 2550 3084 2163 3084 
Q 1697 3084 1428 2787 
Q 1159 2491 1159 1978 
L 1159 0 
L 581 0 
L 581 3500 
L 1159 3500 
L 1159 2956 
Q 1366 3272 1645 3428 
Q 1925 3584 2291 3584 
Q 2894 3584 3203 3211 
Q 3513 2838 3513 2113 
z
" transform="scale(0.015625)"/>
      <path id="DejaVuSans-51" d="M 2522 4238 
Q 1834 4238 1429 3725 
Q 1025 3213 1025 2328 
Q 1025 1447 1429 934 
Q 1834 422 2522 422 
Q 3209 422 3611 934 
Q 4013 1447 4013 2328 
Q 4013 3213 3611 3725 
Q 3209 4238 2522 4238 
z
M 3406 84 
L 4238 -825 
L 3475 -825 
L 2784 -78 
Q 2681 -84 2626 -87 
Q 2572 -91 2522 -91 
Q 1538 -91 948 567 
Q 359 1225 359 2328 
Q 359 3434 948 4092 
Q 1538 4750 2522 4750 
Q 3503 4750 4090 4092 
Q 4678 3434 4678 2328 
Q 4678 1516 4351 937 
Q 4025 359 3406 84 
z
" transform="scale(0.015625)"/>
      <path id="DejaVuSans-41" d="M 2188 4044 
L 1331 1722 
L 3047 1722 
L 2188 4044 
z
M 1831 4666 
L 2547 4666 
L 4325 0 
L 3669 0 
L 3244 1197 
L 1141 1197 
L 716 0 
L 50 0 
L 1831 4666 
z
" transform="scale(0.015625)"/>
      <path id="DejaVuSans-20" transform="scale(0.015625)"/>
      <path id="DejaVuSans-74" d="M 1172 4494 
L 1172 3500 
L 2356 3500 
L 2356 3053 
L 1172 3053 
L 1172 1153 
Q 1172 725 1289 603 
Q 1406 481 1766 481 
L 2356 481 
L 2356 0 
L 1766 0 
Q 1100 0 847 248 
Q 594 497 594 1153 
L 594 3053 
L 172 3053 
L 172 3500 
L 594 3500 
L 594 4494 
L 1172 4494 
z
" transform="scale(0.015625)"/>
      <path id="DejaVuSans-65" d="M 3597 1894 
L 3597 1613 
L 953 1613 
Q 991 1019 1311 708 
Q 1631 397 2203 397 
Q 2534 397 2845 478 
Q 3156 559 3463 722 
L 3463 178 
Q 3153 47 2828 -22 
Q 2503 -91 2169 -91 
Q 1331 -91 842 396 
Q 353 884 353 1716 
Q 353 2575 817 3079 
Q 1281 3584 2069 3584 
Q 2775 3584 3186 3129 
Q 3597 2675 3597 1894 
z
M 3022 2063 
Q 3016 2534 2758 2815 
Q 2500 3097 2075 3097 
Q 1594 3097 1305 2825 
Q 1016 2553 972 2059 
L 3022 2063 
z
" transform="scale(0.015625)"/>
      <path id="DejaVuSans-73" d="M 2834 3397 
L 2834 2853 
Q 2591 2978 2328 3040 
Q 2066 3103 1784 3103 
Q 1356 3103 1142 2972 
Q 928 2841 928 2578 
Q 928 2378 1081 2264 
Q 1234 2150 1697 2047 
L 1894 2003 
Q 2506 1872 2764 1633 
Q 3022 1394 3022 966 
Q 3022 478 2636 193 
Q 2250 -91 1575 -91 
Q 1294 -91 989 -36 
Q 684 19 347 128 
L 347 722 
Q 666 556 975 473 
Q 1284 391 1588 391 
Q 1994 391 2212 530 
Q 2431 669 2431 922 
Q 2431 1156 2273 1281 
Q 2116 1406 1581 1522 
L 1381 1569 
Q 847 1681 609 1914 
Q 372 2147 372 2553 
Q 372 3047 722 3315 
Q 1072 3584 1716 3584 
Q 2034 3584 2315 3537 
Q 2597 3491 2834 3397 
z
" transform="scale(0.015625)"/>
     </defs>
     <use xlink:href="#DejaVuSans-46"/>
     <use xlink:href="#DejaVuSans-69" transform="translate(50.269531 0)"/>
     <use xlink:href="#DejaVuSans-6e" transform="translate(78.052734 0)"/>
     <use xlink:href="#DejaVuSans-51" transform="translate(141.431641 0)"/>
     <use xlink:href="#DejaVuSans-41" transform="translate(220.142578 0)"/>
     <use xlink:href="#DejaVuSans-20" transform="translate(288.550781 0)"/>
     <use xlink:href="#DejaVuSans-74" transform="translate(320.337891 0)"/>
     <use xlink:href="#DejaVuSans-65" transform="translate(359.546875 0)"/>
     <use xlink:href="#DejaVuSans-73" transform="translate(421.070312 0)"/>
     <use xlink:href="#DejaVuSans-74" transform="translate(473.169922 0)"/>
    </g>
    <!-- 1,147 items -->
    <g transform="translate(21.457865 71.966909) scale(0.0635 -0.0635)">
     <defs>
      <path id="DejaVuSans-31" d="M 794 531 
L 1825 531 
L 1825 4091 
L 703 3866 
L 703 4441 
L 1819 4666 
L 2450 4666 
L 2450 531 
L 3481 531 
L 3481 0 
L 794 0 
L 794 531 
z
" transform="scale(0.015625)"/>
      <path id="DejaVuSans-2c" d="M 750 794 
L 1409 794 
L 1409 256 
L 897 -744 
L 494 -744 
L 750 256 
L 750 794 
z
" transform="scale(0.015625)"/>
      <path id="DejaVuSans-34" d="M 2419 4116 
L 825 1625 
L 2419 1625 
L 2419 4116 
z
M 2253 4666 
L 3047 4666 
L 3047 1625 
L 3713 1625 
L 3713 1100 
L 3047 1100 
L 3047 0 
L 2419 0 
L 2419 1100 
L 313 1100 
L 313 1709 
L 2253 4666 
z
" transform="scale(0.015625)"/>
      <path id="DejaVuSans-37" d="M 525 4666 
L 3525 4666 
L 3525 4397 
L 1831 0 
L 1172 0 
L 2766 4134 
L 525 4134 
L 525 4666 
z
" transform="scale(0.015625)"/>
      <path id="DejaVuSans-6d" d="M 3328 2828 
Q 3544 3216 3844 3400 
Q 4144 3584 4550 3584 
Q 5097 3584 5394 3201 
Q 5691 2819 5691 2113 
L 5691 0 
L 5113 0 
L 5113 2094 
Q 5113 2597 4934 2840 
Q 4756 3084 4391 3084 
Q 3944 3084 3684 2787 
Q 3425 2491 3425 1978 
L 3425 0 
L 2847 0 
L 2847 2094 
Q 2847 2600 2669 2842 
Q 2491 3084 2119 3084 
Q 1678 3084 1418 2786 
Q 1159 2488 1159 1978 
L 1159 0 
L 581 0 
L 581 3500 
L 1159 3500 
L 1159 2956 
Q 1356 3278 1631 3431 
Q 1906 3584 2284 3584 
Q 2666 3584 2933 3390 
Q 3200 3197 3328 2828 
z
" transform="scale(0.015625)"/>
     </defs>
     <use xlink:href="#DejaVuSans-31"/>
     <use xlink:href="#DejaVuSans-2c" transform="translate(63.623047 0)"/>
     <use xlink:href="#DejaVuSans-31" transform="translate(95.410156 0)"/>
     <use xlink:href="#DejaVuSans-34" transform="translate(159.033203 0)"/>
     <use xlink:href="#DejaVuSans-37" transform="translate(222.65625 0)"/>
     <use xlink:href="#DejaVuSans-20" transform="translate(286.279297 0)"/>
     <use xlink:href="#DejaVuSans-69" transform="translate(318.066406 0)"/>
     <use xlink:href="#DejaVuSans-74" transform="translate(345.849609 0)"/>
     <use xlink:href="#DejaVuSans-65" transform="translate(385.058594 0)"/>
     <use xlink:href="#DejaVuSans-6d" transform="translate(446.582031 0)"/>
     <use xlink:href="#DejaVuSans-73" transform="translate(543.994141 0)"/>
    </g>
   </g>
   <g id="text_2">
    <!-- Frozen -->
    <g transform="translate(98.277971 61.300992) scale(0.0635 -0.0635)">
     <defs>
      <path id="DejaVuSans-72" d="M 2631 2963 
Q 2534 3019 2420 3045 
Q 2306 3072 2169 3072 
Q 1681 3072 1420 2755 
Q 1159 2438 1159 1844 
L 1159 0 
L 581 0 
L 581 3500 
L 1159 3500 
L 1159 2956 
Q 1341 3275 1631 3429 
Q 1922 3584 2338 3584 
Q 2397 3584 2469 3576 
Q 2541 3569 2628 3553 
L 2631 2963 
z
" transform="scale(0.015625)"/>
      <path id="DejaVuSans-6f" d="M 1959 3097 
Q 1497 3097 1228 2736 
Q 959 2375 959 1747 
Q 959 1119 1226 758 
Q 1494 397 1959 397 
Q 2419 397 2687 759 
Q 2956 1122 2956 1747 
Q 2956 2369 2687 2733 
Q 2419 3097 1959 3097 
z
M 1959 3584 
Q 2709 3584 3137 3096 
Q 3566 2609 3566 1747 
Q 3566 888 3137 398 
Q 2709 -91 1959 -91 
Q 1206 -91 779 398 
Q 353 888 353 1747 
Q 353 2609 779 3096 
Q 1206 3584 1959 3584 
z
" transform="scale(0.015625)"/>
      <path id="DejaVuSans-7a" d="M 353 3500 
L 3084 3500 
L 3084 2975 
L 922 459 
L 3084 459 
L 3084 0 
L 275 0 
L 275 525 
L 2438 3041 
L 353 3041 
L 353 3500 
z
" transform="scale(0.015625)"/>
     </defs>
     <use xlink:href="#DejaVuSans-46"/>
     <use xlink:href="#DejaVuSans-72" transform="translate(50.269531 0)"/>
     <use xlink:href="#DejaVuSans-6f" transform="translate(89.132812 0)"/>
     <use xlink:href="#DejaVuSans-7a" transform="translate(150.314453 0)"/>
     <use xlink:href="#DejaVuSans-65" transform="translate(202.804688 0)"/>
     <use xlink:href="#DejaVuSans-6e" transform="translate(264.328125 0)"/>
    </g>
    <!-- stratified sample -->
    <g transform="translate(81.884553 68.411603) scale(0.0635 -0.0635)">
     <defs>
      <path id="DejaVuSans-61" d="M 2194 1759 
Q 1497 1759 1228 1600 
Q 959 1441 959 1056 
Q 959 750 1161 570 
Q 1363 391 1709 391 
Q 2188 391 2477 730 
Q 2766 1069 2766 1631 
L 2766 1759 
L 2194 1759 
z
M 3341 1997 
L 3341 0 
L 2766 0 
L 2766 531 
Q 2569 213 2275 61 
Q 1981 -91 1556 -91 
Q 1019 -91 701 211 
Q 384 513 384 1019 
Q 384 1609 779 1909 
Q 1175 2209 1959 2209 
L 2766 2209 
L 2766 2266 
Q 2766 2663 2505 2880 
Q 2244 3097 1772 3097 
Q 1472 3097 1187 3025 
Q 903 2953 641 2809 
L 641 3341 
Q 956 3463 1253 3523 
Q 1550 3584 1831 3584 
Q 2591 3584 2966 3190 
Q 3341 2797 3341 1997 
z
" transform="scale(0.015625)"/>
      <path id="DejaVuSans-66" d="M 2375 4863 
L 2375 4384 
L 1825 4384 
Q 1516 4384 1395 4259 
Q 1275 4134 1275 3809 
L 1275 3500 
L 2222 3500 
L 2222 3053 
L 1275 3053 
L 1275 0 
L 697 0 
L 697 3053 
L 147 3053 
L 147 3500 
L 697 3500 
L 697 3744 
Q 697 4328 969 4595 
Q 1241 4863 1831 4863 
L 2375 4863 
z
" transform="scale(0.015625)"/>
      <path id="DejaVuSans-64" d="M 2906 2969 
L 2906 4863 
L 3481 4863 
L 3481 0 
L 2906 0 
L 2906 525 
Q 2725 213 2448 61 
Q 2172 -91 1784 -91 
Q 1150 -91 751 415 
Q 353 922 353 1747 
Q 353 2572 751 3078 
Q 1150 3584 1784 3584 
Q 2172 3584 2448 3432 
Q 2725 3281 2906 2969 
z
M 947 1747 
Q 947 1113 1208 752 
Q 1469 391 1925 391 
Q 2381 391 2643 752 
Q 2906 1113 2906 1747 
Q 2906 2381 2643 2742 
Q 2381 3103 1925 3103 
Q 1469 3103 1208 2742 
Q 947 2381 947 1747 
z
" transform="scale(0.015625)"/>
      <path id="DejaVuSans-70" d="M 1159 525 
L 1159 -1331 
L 581 -1331 
L 581 3500 
L 1159 3500 
L 1159 2969 
Q 1341 3281 1617 3432 
Q 1894 3584 2278 3584 
Q 2916 3584 3314 3078 
Q 3713 2572 3713 1747 
Q 3713 922 3314 415 
Q 2916 -91 2278 -91 
Q 1894 -91 1617 61 
Q 1341 213 1159 525 
z
M 3116 1747 
Q 3116 2381 2855 2742 
Q 2594 3103 2138 3103 
Q 1681 3103 1420 2742 
Q 1159 2381 1159 1747 
Q 1159 1113 1420 752 
Q 1681 391 2138 391 
Q 2594 391 2855 752 
Q 3116 1113 3116 1747 
z
" transform="scale(0.015625)"/>
      <path id="DejaVuSans-6c" d="M 603 4863 
L 1178 4863 
L 1178 0 
L 603 0 
L 603 4863 
z
" transform="scale(0.015625)"/>
     </defs>
     <use xlink:href="#DejaVuSans-73"/>
     <use xlink:href="#DejaVuSans-74" transform="translate(52.099609 0)"/>
     <use xlink:href="#DejaVuSans-72" transform="translate(91.308594 0)"/>
     <use xlink:href="#DejaVuSans-61" transform="translate(132.421875 0)"/>
     <use xlink:href="#DejaVuSans-74" transform="translate(193.701172 0)"/>
     <use xlink:href="#DejaVuSans-69" transform="translate(232.910156 0)"/>
     <use xlink:href="#DejaVuSans-66" transform="translate(260.693359 0)"/>
     <use xlink:href="#DejaVuSans-69" transform="translate(295.898438 0)"/>
     <use xlink:href="#DejaVuSans-65" transform="translate(323.681641 0)"/>
     <use xlink:href="#DejaVuSans-64" transform="translate(385.205078 0)"/>
     <use xlink:href="#DejaVuSans-20" transform="translate(448.681641 0)"/>
     <use xlink:href="#DejaVuSans-73" transform="translate(480.46875 0)"/>
     <use xlink:href="#DejaVuSans-61" transform="translate(532.568359 0)"/>
     <use xlink:href="#DejaVuSans-6d" transform="translate(593.847656 0)"/>
     <use xlink:href="#DejaVuSans-70" transform="translate(691.259766 0)"/>
     <use xlink:href="#DejaVuSans-6c" transform="translate(754.736328 0)"/>
     <use xlink:href="#DejaVuSans-65" transform="translate(782.519531 0)"/>
    </g>
    <!-- n=500 -->
    <g transform="translate(97.949557 75.522214) scale(0.0635 -0.0635)">
     <defs>
      <path id="DejaVuSans-3d" d="M 678 2906 
L 4684 2906 
L 4684 2381 
L 678 2381 
L 678 2906 
z
M 678 1631 
L 4684 1631 
L 4684 1100 
L 678 1100 
L 678 1631 
z
" transform="scale(0.015625)"/>
      <path id="DejaVuSans-35" d="M 691 4666 
L 3169 4666 
L 3169 4134 
L 1269 4134 
L 1269 2991 
Q 1406 3038 1543 3061 
Q 1681 3084 1819 3084 
Q 2600 3084 3056 2656 
Q 3513 2228 3513 1497 
Q 3513 744 3044 326 
Q 2575 -91 1722 -91 
Q 1428 -91 1123 -41 
Q 819 9 494 109 
L 494 744 
Q 775 591 1075 516 
Q 1375 441 1709 441 
Q 2250 441 2565 725 
Q 2881 1009 2881 1497 
Q 2881 1984 2565 2268 
Q 2250 2553 1709 2553 
Q 1456 2553 1204 2497 
Q 953 2441 691 2322 
L 691 4666 
z
" transform="scale(0.015625)"/>
      <path id="DejaVuSans-30" d="M 2034 4250 
Q 1547 4250 1301 3770 
Q 1056 3291 1056 2328 
Q 1056 1369 1301 889 
Q 1547 409 2034 409 
Q 2525 409 2770 889 
Q 3016 1369 3016 2328 
Q 3016 3291 2770 3770 
Q 2525 4250 2034 4250 
z
M 2034 4750 
Q 2819 4750 3233 4129 
Q 3647 3509 3647 2328 
Q 3647 1150 3233 529 
Q 2819 -91 2034 -91 
Q 1250 -91 836 529 
Q 422 1150 422 2328 
Q 422 3509 836 4129 
Q 1250 4750 2034 4750 
z
" transform="scale(0.015625)"/>
     </defs>
     <use xlink:href="#DejaVuSans-6e"/>
     <use xlink:href="#DejaVuSans-3d" transform="translate(63.378906 0)"/>
     <use xlink:href="#DejaVuSans-35" transform="translate(147.167969 0)"/>
     <use xlink:href="#DejaVuSans-30" transform="translate(210.791016 0)"/>
     <use xlink:href="#DejaVuSans-30" transform="translate(274.414062 0)"/>
    </g>
   </g>
   <g id="text_3">
    <!-- Answer-stripped -->
    <g transform="translate(151.258788 61.300992) scale(0.0635 -0.0635)">
     <defs>
      <path id="DejaVuSans-77" d="M 269 3500 
L 844 3500 
L 1563 769 
L 2278 3500 
L 2956 3500 
L 3675 769 
L 4391 3500 
L 4966 3500 
L 4050 0 
L 3372 0 
L 2619 2869 
L 1863 0 
L 1184 0 
L 269 3500 
z
" transform="scale(0.015625)"/>
      <path id="DejaVuSans-2d" d="M 313 2009 
L 1997 2009 
L 1997 1497 
L 313 1497 
L 313 2009 
z
" transform="scale(0.015625)"/>
     </defs>
     <use xlink:href="#DejaVuSans-41"/>
     <use xlink:href="#DejaVuSans-6e" transform="translate(68.408203 0)"/>
     <use xlink:href="#DejaVuSans-73" transform="translate(131.787109 0)"/>
     <use xlink:href="#DejaVuSans-77" transform="translate(183.886719 0)"/>
     <use xlink:href="#DejaVuSans-65" transform="translate(265.673828 0)"/>
     <use xlink:href="#DejaVuSans-72" transform="translate(327.197266 0)"/>
     <use xlink:href="#DejaVuSans-2d" transform="translate(361.935547 0)"/>
     <use xlink:href="#DejaVuSans-73" transform="translate(398.019531 0)"/>
     <use xlink:href="#DejaVuSans-74" transform="translate(450.119141 0)"/>
     <use xlink:href="#DejaVuSans-72" transform="translate(489.328125 0)"/>
     <use xlink:href="#DejaVuSans-69" transform="translate(530.441406 0)"/>
     <use xlink:href="#DejaVuSans-70" transform="translate(558.224609 0)"/>
     <use xlink:href="#DejaVuSans-70" transform="translate(621.701172 0)"/>
     <use xlink:href="#DejaVuSans-65" transform="translate(685.177734 0)"/>
     <use xlink:href="#DejaVuSans-64" transform="translate(746.701172 0)"/>
    </g>
    <!-- inference -->
    <g transform="translate(162.117288 68.411603) scale(0.0635 -0.0635)">
     <defs>
      <path id="DejaVuSans-63" d="M 3122 3366 
L 3122 2828 
Q 2878 2963 2633 3030 
Q 2388 3097 2138 3097 
Q 1578 3097 1268 2742 
Q 959 2388 959 1747 
Q 959 1106 1268 751 
Q 1578 397 2138 397 
Q 2388 397 2633 464 
Q 2878 531 3122 666 
L 3122 134 
Q 2881 22 2623 -34 
Q 2366 -91 2075 -91 
Q 1284 -91 818 406 
Q 353 903 353 1747 
Q 353 2603 823 3093 
Q 1294 3584 2113 3584 
Q 2378 3584 2631 3529 
Q 2884 3475 3122 3366 
z
" transform="scale(0.015625)"/>
     </defs>
     <use xlink:href="#DejaVuSans-69"/>
     <use xlink:href="#DejaVuSans-6e" transform="translate(27.783203 0)"/>
     <use xlink:href="#DejaVuSans-66" transform="translate(91.162109 0)"/>
     <use xlink:href="#DejaVuSans-65" transform="translate(126.367188 0)"/>
     <use xlink:href="#DejaVuSans-72" transform="translate(187.890625 0)"/>
     <use xlink:href="#DejaVuSans-65" transform="translate(226.753906 0)"/>
     <use xlink:href="#DejaVuSans-6e" transform="translate(288.277344 0)"/>
     <use xlink:href="#DejaVuSans-63" transform="translate(351.65625 0)"/>
     <use xlink:href="#DejaVuSans-65" transform="translate(406.636719 0)"/>
    </g>
    <!-- inputs -->
    <g transform="translate(167.161073 75.522214) scale(0.0635 -0.0635)">
     <defs>
      <path id="DejaVuSans-75" d="M 544 1381 
L 544 3500 
L 1119 3500 
L 1119 1403 
Q 1119 906 1312 657 
Q 1506 409 1894 409 
Q 2359 409 2629 706 
Q 2900 1003 2900 1516 
L 2900 3500 
L 3475 3500 
L 3475 0 
L 2900 0 
L 2900 538 
Q 2691 219 2414 64 
Q 2138 -91 1772 -91 
Q 1169 -91 856 284 
Q 544 659 544 1381 
z
M 1991 3584 
L 1991 3584 
z
" transform="scale(0.015625)"/>
     </defs>
     <use xlink:href="#DejaVuSans-69"/>
     <use xlink:href="#DejaVuSans-6e" transform="translate(27.783203 0)"/>
     <use xlink:href="#DejaVuSans-70" transform="translate(91.162109 0)"/>
     <use xlink:href="#DejaVuSans-75" transform="translate(154.638672 0)"/>
     <use xlink:href="#DejaVuSans-74" transform="translate(218.017578 0)"/>
     <use xlink:href="#DejaVuSans-73" transform="translate(257.226562 0)"/>
    </g>
   </g>
   <g id="text_4">
    <!-- Interleaved -->
    <g transform="translate(227.198824 61.300992) scale(0.0635 -0.0635)">
     <defs>
      <path id="DejaVuSans-49" d="M 628 4666 
L 1259 4666 
L 1259 0 
L 628 0 
L 628 4666 
z
" transform="scale(0.015625)"/>
      <path id="DejaVuSans-76" d="M 191 3500 
L 800 3500 
L 1894 563 
L 2988 3500 
L 3597 3500 
L 2284 0 
L 1503 0 
L 191 3500 
z
" transform="scale(0.015625)"/>
     </defs>
     <use xlink:href="#DejaVuSans-49"/>
     <use xlink:href="#DejaVuSans-6e" transform="translate(29.492188 0)"/>
     <use xlink:href="#DejaVuSans-74" transform="translate(92.871094 0)"/>
     <use xlink:href="#DejaVuSans-65" transform="translate(132.080078 0)"/>
     <use xlink:href="#DejaVuSans-72" transform="translate(193.603516 0)"/>
     <use xlink:href="#DejaVuSans-6c" transform="translate(234.716797 0)"/>
     <use xlink:href="#DejaVuSans-65" transform="translate(262.5 0)"/>
     <use xlink:href="#DejaVuSans-61" transform="translate(324.023438 0)"/>
     <use xlink:href="#DejaVuSans-76" transform="translate(385.302734 0)"/>
     <use xlink:href="#DejaVuSans-65" transform="translate(444.482422 0)"/>
     <use xlink:href="#DejaVuSans-64" transform="translate(506.005859 0)"/>
    </g>
    <!-- paired B0/B1 -->
    <g transform="translate(224.759035 68.411603) scale(0.0635 -0.0635)">
     <defs>
      <path id="DejaVuSans-42" d="M 1259 2228 
L 1259 519 
L 2272 519 
Q 2781 519 3026 730 
Q 3272 941 3272 1375 
Q 3272 1813 3026 2020 
Q 2781 2228 2272 2228 
L 1259 2228 
z
M 1259 4147 
L 1259 2741 
L 2194 2741 
Q 2656 2741 2882 2914 
Q 3109 3088 3109 3444 
Q 3109 3797 2882 3972 
Q 2656 4147 2194 4147 
L 1259 4147 
z
M 628 4666 
L 2241 4666 
Q 2963 4666 3353 4366 
Q 3744 4066 3744 3513 
Q 3744 3084 3544 2831 
Q 3344 2578 2956 2516 
Q 3422 2416 3680 2098 
Q 3938 1781 3938 1306 
Q 3938 681 3513 340 
Q 3088 0 2303 0 
L 628 0 
L 628 4666 
z
" transform="scale(0.015625)"/>
      <path id="DejaVuSans-2f" d="M 1625 4666 
L 2156 4666 
L 531 -594 
L 0 -594 
L 1625 4666 
z
" transform="scale(0.015625)"/>
     </defs>
     <use xlink:href="#DejaVuSans-70"/>
     <use xlink:href="#DejaVuSans-61" transform="translate(63.476562 0)"/>
     <use xlink:href="#DejaVuSans-69" transform="translate(124.755859 0)"/>
     <use xlink:href="#DejaVuSans-72" transform="translate(152.539062 0)"/>
     <use xlink:href="#DejaVuSans-65" transform="translate(191.402344 0)"/>
     <use xlink:href="#DejaVuSans-64" transform="translate(252.925781 0)"/>
     <use xlink:href="#DejaVuSans-20" transform="translate(316.402344 0)"/>
     <use xlink:href="#DejaVuSans-42" transform="translate(348.189453 0)"/>
     <use xlink:href="#DejaVuSans-30" transform="translate(416.792969 0)"/>
     <use xlink:href="#DejaVuSans-2f" transform="translate(480.416016 0)"/>
     <use xlink:href="#DejaVuSans-42" transform="translate(514.107422 0)"/>
     <use xlink:href="#DejaVuSans-31" transform="translate(582.710938 0)"/>
    </g>
    <!-- schedule -->
    <g transform="translate(231.051984 75.522214) scale(0.0635 -0.0635)">
     <defs>
      <path id="DejaVuSans-68" d="M 3513 2113 
L 3513 0 
L 2938 0 
L 2938 2094 
Q 2938 2591 2744 2837 
Q 2550 3084 2163 3084 
Q 1697 3084 1428 2787 
Q 1159 2491 1159 1978 
L 1159 0 
L 581 0 
L 581 4863 
L 1159 4863 
L 1159 2956 
Q 1366 3272 1645 3428 
Q 1925 3584 2291 3584 
Q 2894 3584 3203 3211 
Q 3513 2838 3513 2113 
z
" transform="scale(0.015625)"/>
     </defs>
     <use xlink:href="#DejaVuSans-73"/>
     <use xlink:href="#DejaVuSans-63" transform="translate(52.099609 0)"/>
     <use xlink:href="#DejaVuSans-68" transform="translate(107.080078 0)"/>
     <use xlink:href="#DejaVuSans-65" transform="translate(170.458984 0)"/>
     <use xlink:href="#DejaVuSans-64" transform="translate(231.982422 0)"/>
     <use xlink:href="#DejaVuSans-75" transform="translate(295.458984 0)"/>
     <use xlink:href="#DejaVuSans-6c" transform="translate(358.837891 0)"/>
     <use xlink:href="#DejaVuSans-65" transform="translate(386.621094 0)"/>
    </g>
   </g>
   <g id="text_5">
    <!-- Immutable -->
    <g transform="translate(296.404387 61.300992) scale(0.0635 -0.0635)">
     <defs>
      <path id="DejaVuSans-62" d="M 3116 1747 
Q 3116 2381 2855 2742 
Q 2594 3103 2138 3103 
Q 1681 3103 1420 2742 
Q 1159 2381 1159 1747 
Q 1159 1113 1420 752 
Q 1681 391 2138 391 
Q 2594 391 2855 752 
Q 3116 1113 3116 1747 
z
M 1159 2969 
Q 1341 3281 1617 3432 
Q 1894 3584 2278 3584 
Q 2916 3584 3314 3078 
Q 3713 2572 3713 1747 
Q 3713 922 3314 415 
Q 2916 -91 2278 -91 
Q 1894 -91 1617 61 
Q 1341 213 1159 525 
L 1159 0 
L 581 0 
L 581 4863 
L 1159 4863 
L 1159 2969 
z
" transform="scale(0.015625)"/>
     </defs>
     <use xlink:href="#DejaVuSans-49"/>
     <use xlink:href="#DejaVuSans-6d" transform="translate(29.492188 0)"/>
     <use xlink:href="#DejaVuSans-6d" transform="translate(126.904297 0)"/>
     <use xlink:href="#DejaVuSans-75" transform="translate(224.316406 0)"/>
     <use xlink:href="#DejaVuSans-74" transform="translate(287.695312 0)"/>
     <use xlink:href="#DejaVuSans-61" transform="translate(326.904297 0)"/>
     <use xlink:href="#DejaVuSans-62" transform="translate(388.183594 0)"/>
     <use xlink:href="#DejaVuSans-6c" transform="translate(451.660156 0)"/>
     <use xlink:href="#DejaVuSans-65" transform="translate(479.443359 0)"/>
    </g>
    <!-- predictions -->
    <g transform="translate(295.998087 68.411603) scale(0.0635 -0.0635)">
     <use xlink:href="#DejaVuSans-70"/>
     <use xlink:href="#DejaVuSans-72" transform="translate(63.476562 0)"/>
     <use xlink:href="#DejaVuSans-65" transform="translate(102.339844 0)"/>
     <use xlink:href="#DejaVuSans-64" transform="translate(163.863281 0)"/>
     <use xlink:href="#DejaVuSans-69" transform="translate(227.339844 0)"/>
     <use xlink:href="#DejaVuSans-63" transform="translate(255.123047 0)"/>
     <use xlink:href="#DejaVuSans-74" transform="translate(310.103516 0)"/>
     <use xlink:href="#DejaVuSans-69" transform="translate(349.3125 0)"/>
     <use xlink:href="#DejaVuSans-6f" transform="translate(377.095703 0)"/>
     <use xlink:href="#DejaVuSans-6e" transform="translate(438.277344 0)"/>
     <use xlink:href="#DejaVuSans-73" transform="translate(501.65625 0)"/>
    </g>
    <!-- + hashes -->
    <g transform="translate(298.678977 75.522214) scale(0.0635 -0.0635)">
     <defs>
      <path id="DejaVuSans-2b" d="M 2944 4013 
L 2944 2272 
L 4684 2272 
L 4684 1741 
L 2944 1741 
L 2944 0 
L 2419 0 
L 2419 1741 
L 678 1741 
L 678 2272 
L 2419 2272 
L 2419 4013 
L 2944 4013 
z
" transform="scale(0.015625)"/>
     </defs>
     <use xlink:href="#DejaVuSans-2b"/>
     <use xlink:href="#DejaVuSans-20" transform="translate(83.789062 0)"/>
     <use xlink:href="#DejaVuSans-68" transform="translate(115.576172 0)"/>
     <use xlink:href="#DejaVuSans-61" transform="translate(178.955078 0)"/>
     <use xlink:href="#DejaVuSans-73" transform="translate(240.234375 0)"/>
     <use xlink:href="#DejaVuSans-68" transform="translate(292.333984 0)"/>
     <use xlink:href="#DejaVuSans-65" transform="translate(355.712891 0)"/>
     <use xlink:href="#DejaVuSans-73" transform="translate(417.236328 0)"/>
    </g>
   </g>
   <g id="text_6">
    <!-- Delayed gold -->
    <g transform="translate(358.930924 64.856298) scale(0.0635 -0.0635)">
     <defs>
      <path id="DejaVuSans-44" d="M 1259 4147 
L 1259 519 
L 2022 519 
Q 2988 519 3436 956 
Q 3884 1394 3884 2338 
Q 3884 3275 3436 3711 
Q 2988 4147 2022 4147 
L 1259 4147 
z
M 628 4666 
L 1925 4666 
Q 3281 4666 3915 4102 
Q 4550 3538 4550 2338 
Q 4550 1131 3912 565 
Q 3275 0 1925 0 
L 628 0 
L 628 4666 
z
" transform="scale(0.015625)"/>
      <path id="DejaVuSans-79" d="M 2059 -325 
Q 1816 -950 1584 -1140 
Q 1353 -1331 966 -1331 
L 506 -1331 
L 506 -850 
L 844 -850 
Q 1081 -850 1212 -737 
Q 1344 -625 1503 -206 
L 1606 56 
L 191 3500 
L 800 3500 
L 1894 763 
L 2988 3500 
L 3597 3500 
L 2059 -325 
z
" transform="scale(0.015625)"/>
      <path id="DejaVuSans-67" d="M 2906 1791 
Q 2906 2416 2648 2759 
Q 2391 3103 1925 3103 
Q 1463 3103 1205 2759 
Q 947 2416 947 1791 
Q 947 1169 1205 825 
Q 1463 481 1925 481 
Q 2391 481 2648 825 
Q 2906 1169 2906 1791 
z
M 3481 434 
Q 3481 -459 3084 -895 
Q 2688 -1331 1869 -1331 
Q 1566 -1331 1297 -1286 
Q 1028 -1241 775 -1147 
L 775 -588 
Q 1028 -725 1275 -790 
Q 1522 -856 1778 -856 
Q 2344 -856 2625 -561 
Q 2906 -266 2906 331 
L 2906 616 
Q 2728 306 2450 153 
Q 2172 0 1784 0 
Q 1141 0 747 490 
Q 353 981 353 1791 
Q 353 2603 747 3093 
Q 1141 3584 1784 3584 
Q 2172 3584 2450 3431 
Q 2728 3278 2906 2969 
L 2906 3500 
L 3481 3500 
L 3481 434 
z
" transform="scale(0.015625)"/>
     </defs>
     <use xlink:href="#DejaVuSans-44"/>
     <use xlink:href="#DejaVuSans-65" transform="translate(77.001953 0)"/>
     <use xlink:href="#DejaVuSans-6c" transform="translate(138.525391 0)"/>
     <use xlink:href="#DejaVuSans-61" transform="translate(166.308594 0)"/>
     <use xlink:href="#DejaVuSans-79" transform="translate(227.587891 0)"/>
     <use xlink:href="#DejaVuSans-65" transform="translate(286.767578 0)"/>
     <use xlink:href="#DejaVuSans-64" transform="translate(348.291016 0)"/>
     <use xlink:href="#DejaVuSans-20" transform="translate(411.767578 0)"/>
     <use xlink:href="#DejaVuSans-67" transform="translate(443.554688 0)"/>
     <use xlink:href="#DejaVuSans-6f" transform="translate(507.03125 0)"/>
     <use xlink:href="#DejaVuSans-6c" transform="translate(568.212891 0)"/>
     <use xlink:href="#DejaVuSans-64" transform="translate(595.996094 0)"/>
    </g>
    <!-- evaluation -->
    <g transform="translate(363.170541 71.966909) scale(0.0635 -0.0635)">
     <use xlink:href="#DejaVuSans-65"/>
     <use xlink:href="#DejaVuSans-76" transform="translate(61.523438 0)"/>
     <use xlink:href="#DejaVuSans-61" transform="translate(120.703125 0)"/>
     <use xlink:href="#DejaVuSans-6c" transform="translate(181.982422 0)"/>
     <use xlink:href="#DejaVuSans-75" transform="translate(209.765625 0)"/>
     <use xlink:href="#DejaVuSans-61" transform="translate(273.144531 0)"/>
     <use xlink:href="#DejaVuSans-74" transform="translate(334.423828 0)"/>
     <use xlink:href="#DejaVuSans-69" transform="translate(373.632812 0)"/>
     <use xlink:href="#DejaVuSans-6f" transform="translate(401.416016 0)"/>
     <use xlink:href="#DejaVuSans-6e" transform="translate(462.597656 0)"/>
    </g>
   </g>
   <g id="text_7">
    <!-- Freeze package -->
    <g transform="translate(28.308664 124.068647) scale(0.067 -0.067)">
     <defs>
      <path id="DejaVuSans-6b" d="M 581 4863 
L 1159 4863 
L 1159 1991 
L 2875 3500 
L 3609 3500 
L 1753 1863 
L 3688 0 
L 2938 0 
L 1159 1709 
L 1159 0 
L 581 0 
L 581 4863 
z
" transform="scale(0.015625)"/>
     </defs>
     <use xlink:href="#DejaVuSans-46"/>
     <use xlink:href="#DejaVuSans-72" transform="translate(50.269531 0)"/>
     <use xlink:href="#DejaVuSans-65" transform="translate(89.132812 0)"/>
     <use xlink:href="#DejaVuSans-65" transform="translate(150.65625 0)"/>
     <use xlink:href="#DejaVuSans-7a" transform="translate(212.179688 0)"/>
     <use xlink:href="#DejaVuSans-65" transform="translate(264.669922 0)"/>
     <use xlink:href="#DejaVuSans-20" transform="translate(326.193359 0)"/>
     <use xlink:href="#DejaVuSans-70" transform="translate(357.980469 0)"/>
     <use xlink:href="#DejaVuSans-61" transform="translate(421.457031 0)"/>
     <use xlink:href="#DejaVuSans-63" transform="translate(482.736328 0)"/>
     <use xlink:href="#DejaVuSans-6b" transform="translate(537.716797 0)"/>
     <use xlink:href="#DejaVuSans-61" transform="translate(593.876953 0)"/>
     <use xlink:href="#DejaVuSans-67" transform="translate(655.15625 0)"/>
     <use xlink:href="#DejaVuSans-65" transform="translate(718.632812 0)"/>
    </g>
    <!-- inputs + configs + schedule -->
    <g transform="translate(7.2 131.571181) scale(0.067 -0.067)">
     <use xlink:href="#DejaVuSans-69"/>
     <use xlink:href="#DejaVuSans-6e" transform="translate(27.783203 0)"/>
     <use xlink:href="#DejaVuSans-70" transform="translate(91.162109 0)"/>
     <use xlink:href="#DejaVuSans-75" transform="translate(154.638672 0)"/>
     <use xlink:href="#DejaVuSans-74" transform="translate(218.017578 0)"/>
     <use xlink:href="#DejaVuSans-73" transform="translate(257.226562 0)"/>
     <use xlink:href="#DejaVuSans-20" transform="translate(309.326172 0)"/>
     <use xlink:href="#DejaVuSans-2b" transform="translate(341.113281 0)"/>
     <use xlink:href="#DejaVuSans-20" transform="translate(424.902344 0)"/>
     <use xlink:href="#DejaVuSans-63" transform="translate(456.689453 0)"/>
     <use xlink:href="#DejaVuSans-6f" transform="translate(511.669922 0)"/>
     <use xlink:href="#DejaVuSans-6e" transform="translate(572.851562 0)"/>
     <use xlink:href="#DejaVuSans-66" transform="translate(636.230469 0)"/>
     <use xlink:href="#DejaVuSans-69" transform="translate(671.435547 0)"/>
     <use xlink:href="#DejaVuSans-67" transform="translate(699.21875 0)"/>
     <use xlink:href="#DejaVuSans-73" transform="translate(762.695312 0)"/>
     <use xlink:href="#DejaVuSans-20" transform="translate(814.794922 0)"/>
     <use xlink:href="#DejaVuSans-2b" transform="translate(846.582031 0)"/>
     <use xlink:href="#DejaVuSans-20" transform="translate(930.371094 0)"/>
     <use xlink:href="#DejaVuSans-73" transform="translate(962.158203 0)"/>
     <use xlink:href="#DejaVuSans-63" transform="translate(1014.257812 0)"/>
     <use xlink:href="#DejaVuSans-68" transform="translate(1069.238281 0)"/>
     <use xlink:href="#DejaVuSans-65" transform="translate(1132.617188 0)"/>
     <use xlink:href="#DejaVuSans-64" transform="translate(1194.140625 0)"/>
     <use xlink:href="#DejaVuSans-75" transform="translate(1257.617188 0)"/>
     <use xlink:href="#DejaVuSans-6c" transform="translate(1320.996094 0)"/>
     <use xlink:href="#DejaVuSans-65" transform="translate(1348.779297 0)"/>
    </g>
    <!-- + failure rules -->
    <g transform="translate(30.691352 139.073716) scale(0.067 -0.067)">
     <use xlink:href="#DejaVuSans-2b"/>
     <use xlink:href="#DejaVuSans-20" transform="translate(83.789062 0)"/>
     <use xlink:href="#DejaVuSans-66" transform="translate(115.576172 0)"/>
     <use xlink:href="#DejaVuSans-61" transform="translate(150.78125 0)"/>
     <use xlink:href="#DejaVuSans-69" transform="translate(212.060547 0)"/>
     <use xlink:href="#DejaVuSans-6c" transform="translate(239.84375 0)"/>
     <use xlink:href="#DejaVuSans-75" transform="translate(267.626953 0)"/>
     <use xlink:href="#DejaVuSans-72" transform="translate(331.005859 0)"/>
     <use xlink:href="#DejaVuSans-65" transform="translate(369.869141 0)"/>
     <use xlink:href="#DejaVuSans-20" transform="translate(431.392578 0)"/>
     <use xlink:href="#DejaVuSans-72" transform="translate(463.179688 0)"/>
     <use xlink:href="#DejaVuSans-75" transform="translate(504.292969 0)"/>
     <use xlink:href="#DejaVuSans-6c" transform="translate(567.671875 0)"/>
     <use xlink:href="#DejaVuSans-65" transform="translate(595.455078 0)"/>
     <use xlink:href="#DejaVuSans-73" transform="translate(656.978516 0)"/>
    </g>
   </g>
   <g id="text_8">
    <!-- Structural gate -->
    <g transform="translate(181.291608 123.477956) scale(0.074 -0.074)">
     <defs>
      <path id="DejaVuSans-53" d="M 3425 4513 
L 3425 3897 
Q 3066 4069 2747 4153 
Q 2428 4238 2131 4238 
Q 1616 4238 1336 4038 
Q 1056 3838 1056 3469 
Q 1056 3159 1242 3001 
Q 1428 2844 1947 2747 
L 2328 2669 
Q 3034 2534 3370 2195 
Q 3706 1856 3706 1288 
Q 3706 609 3251 259 
Q 2797 -91 1919 -91 
Q 1588 -91 1214 -16 
Q 841 59 441 206 
L 441 856 
Q 825 641 1194 531 
Q 1563 422 1919 422 
Q 2459 422 2753 634 
Q 3047 847 3047 1241 
Q 3047 1584 2836 1778 
Q 2625 1972 2144 2069 
L 1759 2144 
Q 1053 2284 737 2584 
Q 422 2884 422 3419 
Q 422 4038 858 4394 
Q 1294 4750 2059 4750 
Q 2388 4750 2728 4690 
Q 3069 4631 3425 4513 
z
" transform="scale(0.015625)"/>
     </defs>
     <use xlink:href="#DejaVuSans-53"/>
     <use xlink:href="#DejaVuSans-74" transform="translate(63.476562 0)"/>
     <use xlink:href="#DejaVuSans-72" transform="translate(102.685547 0)"/>
     <use xlink:href="#DejaVuSans-75" transform="translate(143.798828 0)"/>
     <use xlink:href="#DejaVuSans-63" transform="translate(207.177734 0)"/>
     <use xlink:href="#DejaVuSans-74" transform="translate(262.158203 0)"/>
     <use xlink:href="#DejaVuSans-75" transform="translate(301.367188 0)"/>
     <use xlink:href="#DejaVuSans-72" transform="translate(364.746094 0)"/>
     <use xlink:href="#DejaVuSans-61" transform="translate(405.859375 0)"/>
     <use xlink:href="#DejaVuSans-6c" transform="translate(467.138672 0)"/>
     <use xlink:href="#DejaVuSans-20" transform="translate(494.921875 0)"/>
     <use xlink:href="#DejaVuSans-67" transform="translate(526.708984 0)"/>
     <use xlink:href="#DejaVuSans-61" transform="translate(590.185547 0)"/>
     <use xlink:href="#DejaVuSans-74" transform="translate(651.464844 0)"/>
     <use xlink:href="#DejaVuSans-65" transform="translate(690.673828 0)"/>
    </g>
    <!-- completeness + hashes -->
    <g transform="translate(164.821983 131.764338) scale(0.074 -0.074)">
     <use xlink:href="#DejaVuSans-63"/>
     <use xlink:href="#DejaVuSans-6f" transform="translate(54.980469 0)"/>
     <use xlink:href="#DejaVuSans-6d" transform="translate(116.162109 0)"/>
     <use xlink:href="#DejaVuSans-70" transform="translate(213.574219 0)"/>
     <use xlink:href="#DejaVuSans-6c" transform="translate(277.050781 0)"/>
     <use xlink:href="#DejaVuSans-65" transform="translate(304.833984 0)"/>
     <use xlink:href="#DejaVuSans-74" transform="translate(366.357422 0)"/>
     <use xlink:href="#DejaVuSans-65" transform="translate(405.566406 0)"/>
     <use xlink:href="#DejaVuSans-6e" transform="translate(467.089844 0)"/>
     <use xlink:href="#DejaVuSans-65" transform="translate(530.46875 0)"/>
     <use xlink:href="#DejaVuSans-73" transform="translate(591.992188 0)"/>
     <use xlink:href="#DejaVuSans-73" transform="translate(644.091797 0)"/>
     <use xlink:href="#DejaVuSans-20" transform="translate(696.191406 0)"/>
     <use xlink:href="#DejaVuSans-2b" transform="translate(727.978516 0)"/>
     <use xlink:href="#DejaVuSans-20" transform="translate(811.767578 0)"/>
     <use xlink:href="#DejaVuSans-68" transform="translate(843.554688 0)"/>
     <use xlink:href="#DejaVuSans-61" transform="translate(906.933594 0)"/>
     <use xlink:href="#DejaVuSans-73" transform="translate(968.212891 0)"/>
     <use xlink:href="#DejaVuSans-68" transform="translate(1020.3125 0)"/>
     <use xlink:href="#DejaVuSans-65" transform="translate(1083.691406 0)"/>
     <use xlink:href="#DejaVuSans-73" transform="translate(1145.214844 0)"/>
    </g>
    <!-- + order + model ID -->
    <g transform="translate(172.889139 140.050719) scale(0.074 -0.074)">
     <use xlink:href="#DejaVuSans-2b"/>
     <use xlink:href="#DejaVuSans-20" transform="translate(83.789062 0)"/>
     <use xlink:href="#DejaVuSans-6f" transform="translate(115.576172 0)"/>
     <use xlink:href="#DejaVuSans-72" transform="translate(176.757812 0)"/>
     <use xlink:href="#DejaVuSans-64" transform="translate(216.121094 0)"/>
     <use xlink:href="#DejaVuSans-65" transform="translate(279.597656 0)"/>
     <use xlink:href="#DejaVuSans-72" transform="translate(341.121094 0)"/>
     <use xlink:href="#DejaVuSans-20" transform="translate(382.234375 0)"/>
     <use xlink:href="#DejaVuSans-2b" transform="translate(414.021484 0)"/>
     <use xlink:href="#DejaVuSans-20" transform="translate(497.810547 0)"/>
     <use xlink:href="#DejaVuSans-6d" transform="translate(529.597656 0)"/>
     <use xlink:href="#DejaVuSans-6f" transform="translate(627.009766 0)"/>
     <use xlink:href="#DejaVuSans-64" transform="translate(688.191406 0)"/>
     <use xlink:href="#DejaVuSans-65" transform="translate(751.667969 0)"/>
     <use xlink:href="#DejaVuSans-6c" transform="translate(813.191406 0)"/>
     <use xlink:href="#DejaVuSans-20" transform="translate(840.974609 0)"/>
     <use xlink:href="#DejaVuSans-49" transform="translate(872.761719 0)"/>
     <use xlink:href="#DejaVuSans-44" transform="translate(902.253906 0)"/>
    </g>
   </g>
   <g id="text_9">
    <!-- PASS -->
    <g transform="translate(271.31997 117.29475) scale(0.072 -0.072)">
     <defs>
      <path id="DejaVuSans-Bold-50" d="M 588 4666 
L 2584 4666 
Q 3475 4666 3951 4270 
Q 4428 3875 4428 3144 
Q 4428 2409 3951 2014 
Q 3475 1619 2584 1619 
L 1791 1619 
L 1791 0 
L 588 0 
L 588 4666 
z
M 1791 3794 
L 1791 2491 
L 2456 2491 
Q 2806 2491 2997 2661 
Q 3188 2831 3188 3144 
Q 3188 3456 2997 3625 
Q 2806 3794 2456 3794 
L 1791 3794 
z
" transform="scale(0.015625)"/>
      <path id="DejaVuSans-Bold-41" d="M 3419 850 
L 1538 850 
L 1241 0 
L 31 0 
L 1759 4666 
L 3194 4666 
L 4922 0 
L 3713 0 
L 3419 850 
z
M 1838 1716 
L 3116 1716 
L 2478 3572 
L 1838 1716 
z
" transform="scale(0.015625)"/>
      <path id="DejaVuSans-Bold-53" d="M 3834 4519 
L 3834 3531 
Q 3450 3703 3084 3790 
Q 2719 3878 2394 3878 
Q 1963 3878 1756 3759 
Q 1550 3641 1550 3391 
Q 1550 3203 1689 3098 
Q 1828 2994 2194 2919 
L 2706 2816 
Q 3484 2659 3812 2340 
Q 4141 2022 4141 1434 
Q 4141 663 3683 286 
Q 3225 -91 2284 -91 
Q 1841 -91 1394 -6 
Q 947 78 500 244 
L 500 1259 
Q 947 1022 1364 901 
Q 1781 781 2169 781 
Q 2563 781 2772 912 
Q 2981 1044 2981 1288 
Q 2981 1506 2839 1625 
Q 2697 1744 2272 1838 
L 1806 1941 
Q 1106 2091 782 2419 
Q 459 2747 459 3303 
Q 459 4000 909 4375 
Q 1359 4750 2203 4750 
Q 2588 4750 2994 4692 
Q 3400 4634 3834 4519 
z
" transform="scale(0.015625)"/>
     </defs>
     <use xlink:href="#DejaVuSans-Bold-50"/>
     <use xlink:href="#DejaVuSans-Bold-41" transform="translate(64.166016 0)"/>
     <use xlink:href="#DejaVuSans-Bold-53" transform="translate(141.558594 0)"/>
     <use xlink:href="#DejaVuSans-Bold-53" transform="translate(209.080078 0)"/>
    </g>
   </g>
   <g id="text_10">
    <!-- FAIL: stop or dated amendment -->
    <g transform="translate(283.292486 151.405856) scale(0.074 -0.074)">
     <defs>
      <path id="DejaVuSans-4c" d="M 628 4666 
L 1259 4666 
L 1259 531 
L 3531 531 
L 3531 0 
L 628 0 
L 628 4666 
z
" transform="scale(0.015625)"/>
      <path id="DejaVuSans-3a" d="M 750 794 
L 1409 794 
L 1409 0 
L 750 0 
L 750 794 
z
M 750 3309 
L 1409 3309 
L 1409 2516 
L 750 2516 
L 750 3309 
z
" transform="scale(0.015625)"/>
     </defs>
     <use xlink:href="#DejaVuSans-46"/>
     <use xlink:href="#DejaVuSans-41" transform="translate(48.394531 0)"/>
     <use xlink:href="#DejaVuSans-49" transform="translate(116.802734 0)"/>
     <use xlink:href="#DejaVuSans-4c" transform="translate(146.294922 0)"/>
     <use xlink:href="#DejaVuSans-3a" transform="translate(202.007812 0)"/>
     <use xlink:href="#DejaVuSans-20" transform="translate(235.699219 0)"/>
     <use xlink:href="#DejaVuSans-73" transform="translate(267.486328 0)"/>
     <use xlink:href="#DejaVuSans-74" transform="translate(319.585938 0)"/>
     <use xlink:href="#DejaVuSans-6f" transform="translate(358.794922 0)"/>
     <use xlink:href="#DejaVuSans-70" transform="translate(419.976562 0)"/>
     <use xlink:href="#DejaVuSans-20" transform="translate(483.453125 0)"/>
     <use xlink:href="#DejaVuSans-6f" transform="translate(515.240234 0)"/>
     <use xlink:href="#DejaVuSans-72" transform="translate(576.421875 0)"/>
     <use xlink:href="#DejaVuSans-20" transform="translate(617.535156 0)"/>
     <use xlink:href="#DejaVuSans-64" transform="translate(649.322266 0)"/>
     <use xlink:href="#DejaVuSans-61" transform="translate(712.798828 0)"/>
     <use xlink:href="#DejaVuSans-74" transform="translate(774.078125 0)"/>
     <use xlink:href="#DejaVuSans-65" transform="translate(813.287109 0)"/>
     <use xlink:href="#DejaVuSans-64" transform="translate(874.810547 0)"/>
     <use xlink:href="#DejaVuSans-20" transform="translate(938.287109 0)"/>
     <use xlink:href="#DejaVuSans-61" transform="translate(970.074219 0)"/>
     <use xlink:href="#DejaVuSans-6d" transform="translate(1031.353516 0)"/>
     <use xlink:href="#DejaVuSans-65" transform="translate(1128.765625 0)"/>
     <use xlink:href="#DejaVuSans-6e" transform="translate(1190.289062 0)"/>
     <use xlink:href="#DejaVuSans-64" transform="translate(1253.667969 0)"/>
     <use xlink:href="#DejaVuSans-6d" transform="translate(1317.144531 0)"/>
     <use xlink:href="#DejaVuSans-65" transform="translate(1414.556641 0)"/>
     <use xlink:href="#DejaVuSans-6e" transform="translate(1476.080078 0)"/>
     <use xlink:href="#DejaVuSans-74" transform="translate(1539.458984 0)"/>
    </g>
    <!-- Full paired schedule rerun -->
    <g transform="translate(293.63572 159.692238) scale(0.074 -0.074)">
     <use xlink:href="#DejaVuSans-46"/>
     <use xlink:href="#DejaVuSans-75" transform="translate(52.019531 0)"/>
     <use xlink:href="#DejaVuSans-6c" transform="translate(115.398438 0)"/>
     <use xlink:href="#DejaVuSans-6c" transform="translate(143.181641 0)"/>
     <use xlink:href="#DejaVuSans-20" transform="translate(170.964844 0)"/>
     <use xlink:href="#DejaVuSans-70" transform="translate(202.751953 0)"/>
     <use xlink:href="#DejaVuSans-61" transform="translate(266.228516 0)"/>
     <use xlink:href="#DejaVuSans-69" transform="translate(327.507812 0)"/>
     <use xlink:href="#DejaVuSans-72" transform="translate(355.291016 0)"/>
     <use xlink:href="#DejaVuSans-65" transform="translate(394.154297 0)"/>
     <use xlink:href="#DejaVuSans-64" transform="translate(455.677734 0)"/>
     <use xlink:href="#DejaVuSans-20" transform="translate(519.154297 0)"/>
     <use xlink:href="#DejaVuSans-73" transform="translate(550.941406 0)"/>
     <use xlink:href="#DejaVuSans-63" transform="translate(603.041016 0)"/>
     <use xlink:href="#DejaVuSans-68" transform="translate(658.021484 0)"/>
     <use xlink:href="#DejaVuSans-65" transform="translate(721.400391 0)"/>
     <use xlink:href="#DejaVuSans-64" transform="translate(782.923828 0)"/>
     <use xlink:href="#DejaVuSans-75" transform="translate(846.400391 0)"/>
     <use xlink:href="#DejaVuSans-6c" transform="translate(909.779297 0)"/>
     <use xlink:href="#DejaVuSans-65" transform="translate(937.5625 0)"/>
     <use xlink:href="#DejaVuSans-20" transform="translate(999.085938 0)"/>
     <use xlink:href="#DejaVuSans-72" transform="translate(1030.873047 0)"/>
     <use xlink:href="#DejaVuSans-65" transform="translate(1069.736328 0)"/>
     <use xlink:href="#DejaVuSans-72" transform="translate(1131.259766 0)"/>
     <use xlink:href="#DejaVuSans-75" transform="translate(1172.373047 0)"/>
     <use xlink:href="#DejaVuSans-6e" transform="translate(1235.751953 0)"/>
    </g>
    <!-- No selective item reruns -->
    <g transform="translate(296.443673 167.978619) scale(0.074 -0.074)">
     <defs>
      <path id="DejaVuSans-4e" d="M 628 4666 
L 1478 4666 
L 3547 763 
L 3547 4666 
L 4159 4666 
L 4159 0 
L 3309 0 
L 1241 3903 
L 1241 0 
L 628 0 
L 628 4666 
z
" transform="scale(0.015625)"/>
     </defs>
     <use xlink:href="#DejaVuSans-4e"/>
     <use xlink:href="#DejaVuSans-6f" transform="translate(74.804688 0)"/>
     <use xlink:href="#DejaVuSans-20" transform="translate(135.986328 0)"/>
     <use xlink:href="#DejaVuSans-73" transform="translate(167.773438 0)"/>
     <use xlink:href="#DejaVuSans-65" transform="translate(219.873047 0)"/>
     <use xlink:href="#DejaVuSans-6c" transform="translate(281.396484 0)"/>
     <use xlink:href="#DejaVuSans-65" transform="translate(309.179688 0)"/>
     <use xlink:href="#DejaVuSans-63" transform="translate(370.703125 0)"/>
     <use xlink:href="#DejaVuSans-74" transform="translate(425.683594 0)"/>
     <use xlink:href="#DejaVuSans-69" transform="translate(464.892578 0)"/>
     <use xlink:href="#DejaVuSans-76" transform="translate(492.675781 0)"/>
     <use xlink:href="#DejaVuSans-65" transform="translate(551.855469 0)"/>
     <use xlink:href="#DejaVuSans-20" transform="translate(613.378906 0)"/>
     <use xlink:href="#DejaVuSans-69" transform="translate(645.166016 0)"/>
     <use xlink:href="#DejaVuSans-74" transform="translate(672.949219 0)"/>
     <use xlink:href="#DejaVuSans-65" transform="translate(712.158203 0)"/>
     <use xlink:href="#DejaVuSans-6d" transform="translate(773.681641 0)"/>
     <use xlink:href="#DejaVuSans-20" transform="translate(871.09375 0)"/>
     <use xlink:href="#DejaVuSans-72" transform="translate(902.880859 0)"/>
     <use xlink:href="#DejaVuSans-65" transform="translate(941.744141 0)"/>
     <use xlink:href="#DejaVuSans-72" transform="translate(1003.267578 0)"/>
     <use xlink:href="#DejaVuSans-75" transform="translate(1044.380859 0)"/>
     <use xlink:href="#DejaVuSans-6e" transform="translate(1107.759766 0)"/>
     <use xlink:href="#DejaVuSans-73" transform="translate(1171.138672 0)"/>
    </g>
   </g>
   <g id="text_11">
    <!-- FAIL -->
    <g transform="translate(254.895645 151.52895) scale(0.072 -0.072)">
     <defs>
      <path id="DejaVuSans-Bold-46" d="M 588 4666 
L 3834 4666 
L 3834 3756 
L 1791 3756 
L 1791 2888 
L 3713 2888 
L 3713 1978 
L 1791 1978 
L 1791 0 
L 588 0 
L 588 4666 
z
" transform="scale(0.015625)"/>
      <path id="DejaVuSans-Bold-49" d="M 588 4666 
L 1791 4666 
L 1791 0 
L 588 0 
L 588 4666 
z
" transform="scale(0.015625)"/>
      <path id="DejaVuSans-Bold-4c" d="M 588 4666 
L 1791 4666 
L 1791 909 
L 3903 909 
L 3903 0 
L 588 0 
L 588 4666 
z
" transform="scale(0.015625)"/>
     </defs>
     <use xlink:href="#DejaVuSans-Bold-46"/>
     <use xlink:href="#DejaVuSans-Bold-41" transform="translate(56.810547 0)"/>
     <use xlink:href="#DejaVuSans-Bold-49" transform="translate(134.203125 0)"/>
     <use xlink:href="#DejaVuSans-Bold-4c" transform="translate(171.410156 0)"/>
    </g>
   </g>
   <g id="text_12">
    <!-- Registered stability subset: n=100 -->
    <g transform="translate(101.742312 166.388242) scale(0.073 -0.073)">
     <defs>
      <path id="DejaVuSans-52" d="M 2841 2188 
Q 3044 2119 3236 1894 
Q 3428 1669 3622 1275 
L 4263 0 
L 3584 0 
L 2988 1197 
Q 2756 1666 2539 1819 
Q 2322 1972 1947 1972 
L 1259 1972 
L 1259 0 
L 628 0 
L 628 4666 
L 2053 4666 
Q 2853 4666 3247 4331 
Q 3641 3997 3641 3322 
Q 3641 2881 3436 2590 
Q 3231 2300 2841 2188 
z
M 1259 4147 
L 1259 2491 
L 2053 2491 
Q 2509 2491 2742 2702 
Q 2975 2913 2975 3322 
Q 2975 3731 2742 3939 
Q 2509 4147 2053 4147 
L 1259 4147 
z
" transform="scale(0.015625)"/>
     </defs>
     <use xlink:href="#DejaVuSans-52"/>
     <use xlink:href="#DejaVuSans-65" transform="translate(64.982422 0)"/>
     <use xlink:href="#DejaVuSans-67" transform="translate(126.505859 0)"/>
     <use xlink:href="#DejaVuSans-69" transform="translate(189.982422 0)"/>
     <use xlink:href="#DejaVuSans-73" transform="translate(217.765625 0)"/>
     <use xlink:href="#DejaVuSans-74" transform="translate(269.865234 0)"/>
     <use xlink:href="#DejaVuSans-65" transform="translate(309.074219 0)"/>
     <use xlink:href="#DejaVuSans-72" transform="translate(370.597656 0)"/>
     <use xlink:href="#DejaVuSans-65" transform="translate(409.460938 0)"/>
     <use xlink:href="#DejaVuSans-64" transform="translate(470.984375 0)"/>
     <use xlink:href="#DejaVuSans-20" transform="translate(534.460938 0)"/>
     <use xlink:href="#DejaVuSans-73" transform="translate(566.248047 0)"/>
     <use xlink:href="#DejaVuSans-74" transform="translate(618.347656 0)"/>
     <use xlink:href="#DejaVuSans-61" transform="translate(657.556641 0)"/>
     <use xlink:href="#DejaVuSans-62" transform="translate(718.835938 0)"/>
     <use xlink:href="#DejaVuSans-69" transform="translate(782.3125 0)"/>
     <use xlink:href="#DejaVuSans-6c" transform="translate(810.095703 0)"/>
     <use xlink:href="#DejaVuSans-69" transform="translate(837.878906 0)"/>
     <use xlink:href="#DejaVuSans-74" transform="translate(865.662109 0)"/>
     <use xlink:href="#DejaVuSans-79" transform="translate(904.871094 0)"/>
     <use xlink:href="#DejaVuSans-20" transform="translate(964.050781 0)"/>
     <use xlink:href="#DejaVuSans-73" transform="translate(995.837891 0)"/>
     <use xlink:href="#DejaVuSans-75" transform="translate(1047.9375 0)"/>
     <use xlink:href="#DejaVuSans-62" transform="translate(1111.316406 0)"/>
     <use xlink:href="#DejaVuSans-73" transform="translate(1174.792969 0)"/>
     <use xlink:href="#DejaVuSans-65" transform="translate(1226.892578 0)"/>
     <use xlink:href="#DejaVuSans-74" transform="translate(1288.416016 0)"/>
     <use xlink:href="#DejaVuSans-3a" transform="translate(1327.625 0)"/>
     <use xlink:href="#DejaVuSans-20" transform="translate(1361.316406 0)"/>
     <use xlink:href="#DejaVuSans-6e" transform="translate(1393.103516 0)"/>
     <use xlink:href="#DejaVuSans-3d" transform="translate(1456.482422 0)"/>
     <use xlink:href="#DejaVuSans-31" transform="translate(1540.271484 0)"/>
     <use xlink:href="#DejaVuSans-30" transform="translate(1603.894531 0)"/>
     <use xlink:href="#DejaVuSans-30" transform="translate(1667.517578 0)"/>
    </g>
    <!-- R1 + order-reversed R2/R3 -->
    <g transform="translate(115.732078 174.562645) scale(0.073 -0.073)">
     <defs>
      <path id="DejaVuSans-32" d="M 1228 531 
L 3431 531 
L 3431 0 
L 469 0 
L 469 531 
Q 828 903 1448 1529 
Q 2069 2156 2228 2338 
Q 2531 2678 2651 2914 
Q 2772 3150 2772 3378 
Q 2772 3750 2511 3984 
Q 2250 4219 1831 4219 
Q 1534 4219 1204 4116 
Q 875 4013 500 3803 
L 500 4441 
Q 881 4594 1212 4672 
Q 1544 4750 1819 4750 
Q 2544 4750 2975 4387 
Q 3406 4025 3406 3419 
Q 3406 3131 3298 2873 
Q 3191 2616 2906 2266 
Q 2828 2175 2409 1742 
Q 1991 1309 1228 531 
z
" transform="scale(0.015625)"/>
      <path id="DejaVuSans-33" d="M 2597 2516 
Q 3050 2419 3304 2112 
Q 3559 1806 3559 1356 
Q 3559 666 3084 287 
Q 2609 -91 1734 -91 
Q 1441 -91 1130 -33 
Q 819 25 488 141 
L 488 750 
Q 750 597 1062 519 
Q 1375 441 1716 441 
Q 2309 441 2620 675 
Q 2931 909 2931 1356 
Q 2931 1769 2642 2001 
Q 2353 2234 1838 2234 
L 1294 2234 
L 1294 2753 
L 1863 2753 
Q 2328 2753 2575 2939 
Q 2822 3125 2822 3475 
Q 2822 3834 2567 4026 
Q 2313 4219 1838 4219 
Q 1578 4219 1281 4162 
Q 984 4106 628 3988 
L 628 4550 
Q 988 4650 1302 4700 
Q 1616 4750 1894 4750 
Q 2613 4750 3031 4423 
Q 3450 4097 3450 3541 
Q 3450 3153 3228 2886 
Q 3006 2619 2597 2516 
z
" transform="scale(0.015625)"/>
     </defs>
     <use xlink:href="#DejaVuSans-52"/>
     <use xlink:href="#DejaVuSans-31" transform="translate(69.482422 0)"/>
     <use xlink:href="#DejaVuSans-20" transform="translate(133.105469 0)"/>
     <use xlink:href="#DejaVuSans-2b" transform="translate(164.892578 0)"/>
     <use xlink:href="#DejaVuSans-20" transform="translate(248.681641 0)"/>
     <use xlink:href="#DejaVuSans-6f" transform="translate(280.46875 0)"/>
     <use xlink:href="#DejaVuSans-72" transform="translate(341.650391 0)"/>
     <use xlink:href="#DejaVuSans-64" transform="translate(381.013672 0)"/>
     <use xlink:href="#DejaVuSans-65" transform="translate(444.490234 0)"/>
     <use xlink:href="#DejaVuSans-72" transform="translate(506.013672 0)"/>
     <use xlink:href="#DejaVuSans-2d" transform="translate(540.751953 0)"/>
     <use xlink:href="#DejaVuSans-72" transform="translate(576.835938 0)"/>
     <use xlink:href="#DejaVuSans-65" transform="translate(615.699219 0)"/>
     <use xlink:href="#DejaVuSans-76" transform="translate(677.222656 0)"/>
     <use xlink:href="#DejaVuSans-65" transform="translate(736.402344 0)"/>
     <use xlink:href="#DejaVuSans-72" transform="translate(797.925781 0)"/>
     <use xlink:href="#DejaVuSans-73" transform="translate(839.039062 0)"/>
     <use xlink:href="#DejaVuSans-65" transform="translate(891.138672 0)"/>
     <use xlink:href="#DejaVuSans-64" transform="translate(952.662109 0)"/>
     <use xlink:href="#DejaVuSans-20" transform="translate(1016.138672 0)"/>
     <use xlink:href="#DejaVuSans-52" transform="translate(1047.925781 0)"/>
     <use xlink:href="#DejaVuSans-32" transform="translate(1117.408203 0)"/>
     <use xlink:href="#DejaVuSans-2f" transform="translate(1181.03125 0)"/>
     <use xlink:href="#DejaVuSans-52" transform="translate(1214.722656 0)"/>
     <use xlink:href="#DejaVuSans-33" transform="translate(1284.205078 0)"/>
    </g>
   </g>
   <g id="text_13">
    <!-- Inference and evaluation remain isolated until structural acceptance -->
    <g transform="translate(14.862389 22.571975) scale(0.1 -0.1)">
     <defs>
      <path id="DejaVuSans-Bold-6e" d="M 4056 2131 
L 4056 0 
L 2931 0 
L 2931 347 
L 2931 1631 
Q 2931 2084 2911 2256 
Q 2891 2428 2841 2509 
Q 2775 2619 2662 2680 
Q 2550 2741 2406 2741 
Q 2056 2741 1856 2470 
Q 1656 2200 1656 1722 
L 1656 0 
L 538 0 
L 538 3500 
L 1656 3500 
L 1656 2988 
Q 1909 3294 2193 3439 
Q 2478 3584 2822 3584 
Q 3428 3584 3742 3212 
Q 4056 2841 4056 2131 
z
" transform="scale(0.015625)"/>
      <path id="DejaVuSans-Bold-66" d="M 2841 4863 
L 2841 4128 
L 2222 4128 
Q 1984 4128 1890 4042 
Q 1797 3956 1797 3744 
L 1797 3500 
L 2753 3500 
L 2753 2700 
L 1797 2700 
L 1797 0 
L 678 0 
L 678 2700 
L 122 2700 
L 122 3500 
L 678 3500 
L 678 3744 
Q 678 4316 997 4589 
Q 1316 4863 1984 4863 
L 2841 4863 
z
" transform="scale(0.015625)"/>
      <path id="DejaVuSans-Bold-65" d="M 4031 1759 
L 4031 1441 
L 1416 1441 
Q 1456 1047 1700 850 
Q 1944 653 2381 653 
Q 2734 653 3104 758 
Q 3475 863 3866 1075 
L 3866 213 
Q 3469 63 3072 -14 
Q 2675 -91 2278 -91 
Q 1328 -91 801 392 
Q 275 875 275 1747 
Q 275 2603 792 3093 
Q 1309 3584 2216 3584 
Q 3041 3584 3536 3087 
Q 4031 2591 4031 1759 
z
M 2881 2131 
Q 2881 2450 2695 2645 
Q 2509 2841 2209 2841 
Q 1884 2841 1681 2658 
Q 1478 2475 1428 2131 
L 2881 2131 
z
" transform="scale(0.015625)"/>
      <path id="DejaVuSans-Bold-72" d="M 3138 2547 
Q 2991 2616 2845 2648 
Q 2700 2681 2553 2681 
Q 2122 2681 1889 2404 
Q 1656 2128 1656 1613 
L 1656 0 
L 538 0 
L 538 3500 
L 1656 3500 
L 1656 2925 
Q 1872 3269 2151 3426 
Q 2431 3584 2822 3584 
Q 2878 3584 2943 3579 
Q 3009 3575 3134 3559 
L 3138 2547 
z
" transform="scale(0.015625)"/>
      <path id="DejaVuSans-Bold-63" d="M 3366 3391 
L 3366 2478 
Q 3138 2634 2908 2709 
Q 2678 2784 2431 2784 
Q 1963 2784 1702 2511 
Q 1441 2238 1441 1747 
Q 1441 1256 1702 982 
Q 1963 709 2431 709 
Q 2694 709 2930 787 
Q 3166 866 3366 1019 
L 3366 103 
Q 3103 6 2833 -42 
Q 2563 -91 2291 -91 
Q 1344 -91 809 395 
Q 275 881 275 1747 
Q 275 2613 809 3098 
Q 1344 3584 2291 3584 
Q 2566 3584 2833 3536 
Q 3100 3488 3366 3391 
z
" transform="scale(0.015625)"/>
      <path id="DejaVuSans-Bold-20" transform="scale(0.015625)"/>
      <path id="DejaVuSans-Bold-61" d="M 2106 1575 
Q 1756 1575 1579 1456 
Q 1403 1338 1403 1106 
Q 1403 894 1545 773 
Q 1688 653 1941 653 
Q 2256 653 2472 879 
Q 2688 1106 2688 1447 
L 2688 1575 
L 2106 1575 
z
M 3816 1997 
L 3816 0 
L 2688 0 
L 2688 519 
Q 2463 200 2181 54 
Q 1900 -91 1497 -91 
Q 953 -91 614 226 
Q 275 544 275 1050 
Q 275 1666 698 1953 
Q 1122 2241 2028 2241 
L 2688 2241 
L 2688 2328 
Q 2688 2594 2478 2717 
Q 2269 2841 1825 2841 
Q 1466 2841 1156 2769 
Q 847 2697 581 2553 
L 581 3406 
Q 941 3494 1303 3539 
Q 1666 3584 2028 3584 
Q 2975 3584 3395 3211 
Q 3816 2838 3816 1997 
z
" transform="scale(0.015625)"/>
      <path id="DejaVuSans-Bold-64" d="M 2919 2988 
L 2919 4863 
L 4044 4863 
L 4044 0 
L 2919 0 
L 2919 506 
Q 2688 197 2409 53 
Q 2131 -91 1766 -91 
Q 1119 -91 703 423 
Q 288 938 288 1747 
Q 288 2556 703 3070 
Q 1119 3584 1766 3584 
Q 2128 3584 2408 3439 
Q 2688 3294 2919 2988 
z
M 2181 722 
Q 2541 722 2730 984 
Q 2919 1247 2919 1747 
Q 2919 2247 2730 2509 
Q 2541 2772 2181 2772 
Q 1825 2772 1636 2509 
Q 1447 2247 1447 1747 
Q 1447 1247 1636 984 
Q 1825 722 2181 722 
z
" transform="scale(0.015625)"/>
      <path id="DejaVuSans-Bold-76" d="M 97 3500 
L 1216 3500 
L 2088 1081 
L 2956 3500 
L 4078 3500 
L 2700 0 
L 1472 0 
L 97 3500 
z
" transform="scale(0.015625)"/>
      <path id="DejaVuSans-Bold-6c" d="M 538 4863 
L 1656 4863 
L 1656 0 
L 538 0 
L 538 4863 
z
" transform="scale(0.015625)"/>
      <path id="DejaVuSans-Bold-75" d="M 500 1363 
L 500 3500 
L 1625 3500 
L 1625 3150 
Q 1625 2866 1622 2436 
Q 1619 2006 1619 1863 
Q 1619 1441 1641 1255 
Q 1663 1069 1716 984 
Q 1784 875 1895 815 
Q 2006 756 2150 756 
Q 2500 756 2700 1025 
Q 2900 1294 2900 1772 
L 2900 3500 
L 4019 3500 
L 4019 0 
L 2900 0 
L 2900 506 
Q 2647 200 2364 54 
Q 2081 -91 1741 -91 
Q 1134 -91 817 281 
Q 500 653 500 1363 
z
" transform="scale(0.015625)"/>
      <path id="DejaVuSans-Bold-74" d="M 1759 4494 
L 1759 3500 
L 2913 3500 
L 2913 2700 
L 1759 2700 
L 1759 1216 
Q 1759 972 1856 886 
Q 1953 800 2241 800 
L 2816 800 
L 2816 0 
L 1856 0 
Q 1194 0 917 276 
Q 641 553 641 1216 
L 641 2700 
L 84 2700 
L 84 3500 
L 641 3500 
L 641 4494 
L 1759 4494 
z
" transform="scale(0.015625)"/>
      <path id="DejaVuSans-Bold-69" d="M 538 3500 
L 1656 3500 
L 1656 0 
L 538 0 
L 538 3500 
z
M 538 4863 
L 1656 4863 
L 1656 3950 
L 538 3950 
L 538 4863 
z
" transform="scale(0.015625)"/>
      <path id="DejaVuSans-Bold-6f" d="M 2203 2784 
Q 1831 2784 1636 2517 
Q 1441 2250 1441 1747 
Q 1441 1244 1636 976 
Q 1831 709 2203 709 
Q 2569 709 2762 976 
Q 2956 1244 2956 1747 
Q 2956 2250 2762 2517 
Q 2569 2784 2203 2784 
z
M 2203 3584 
Q 3106 3584 3614 3096 
Q 4122 2609 4122 1747 
Q 4122 884 3614 396 
Q 3106 -91 2203 -91 
Q 1297 -91 786 396 
Q 275 884 275 1747 
Q 275 2609 786 3096 
Q 1297 3584 2203 3584 
z
" transform="scale(0.015625)"/>
      <path id="DejaVuSans-Bold-6d" d="M 3781 2919 
Q 3994 3244 4286 3414 
Q 4578 3584 4928 3584 
Q 5531 3584 5847 3212 
Q 6163 2841 6163 2131 
L 6163 0 
L 5038 0 
L 5038 1825 
Q 5041 1866 5042 1909 
Q 5044 1953 5044 2034 
Q 5044 2406 4934 2573 
Q 4825 2741 4581 2741 
Q 4263 2741 4089 2478 
Q 3916 2216 3909 1719 
L 3909 0 
L 2784 0 
L 2784 1825 
Q 2784 2406 2684 2573 
Q 2584 2741 2328 2741 
Q 2006 2741 1831 2477 
Q 1656 2213 1656 1722 
L 1656 0 
L 531 0 
L 531 3500 
L 1656 3500 
L 1656 2988 
Q 1863 3284 2130 3434 
Q 2397 3584 2719 3584 
Q 3081 3584 3359 3409 
Q 3638 3234 3781 2919 
z
" transform="scale(0.015625)"/>
      <path id="DejaVuSans-Bold-73" d="M 3272 3391 
L 3272 2541 
Q 2913 2691 2578 2766 
Q 2244 2841 1947 2841 
Q 1628 2841 1473 2761 
Q 1319 2681 1319 2516 
Q 1319 2381 1436 2309 
Q 1553 2238 1856 2203 
L 2053 2175 
Q 2913 2066 3209 1816 
Q 3506 1566 3506 1031 
Q 3506 472 3093 190 
Q 2681 -91 1863 -91 
Q 1516 -91 1145 -36 
Q 775 19 384 128 
L 384 978 
Q 719 816 1070 734 
Q 1422 653 1784 653 
Q 2113 653 2278 743 
Q 2444 834 2444 1013 
Q 2444 1163 2330 1236 
Q 2216 1309 1875 1350 
L 1678 1375 
Q 931 1469 631 1722 
Q 331 1975 331 2491 
Q 331 3047 712 3315 
Q 1094 3584 1881 3584 
Q 2191 3584 2531 3537 
Q 2872 3491 3272 3391 
z
" transform="scale(0.015625)"/>
      <path id="DejaVuSans-Bold-70" d="M 1656 506 
L 1656 -1331 
L 538 -1331 
L 538 3500 
L 1656 3500 
L 1656 2988 
Q 1888 3294 2169 3439 
Q 2450 3584 2816 3584 
Q 3463 3584 3878 3070 
Q 4294 2556 4294 1747 
Q 4294 938 3878 423 
Q 3463 -91 2816 -91 
Q 2450 -91 2169 54 
Q 1888 200 1656 506 
z
M 2400 2772 
Q 2041 2772 1848 2508 
Q 1656 2244 1656 1747 
Q 1656 1250 1848 986 
Q 2041 722 2400 722 
Q 2759 722 2948 984 
Q 3138 1247 3138 1747 
Q 3138 2247 2948 2509 
Q 2759 2772 2400 2772 
z
" transform="scale(0.015625)"/>
     </defs>
     <use xlink:href="#DejaVuSans-Bold-49"/>
     <use xlink:href="#DejaVuSans-Bold-6e" transform="translate(37.207031 0)"/>
     <use xlink:href="#DejaVuSans-Bold-66" transform="translate(108.398438 0)"/>
     <use xlink:href="#DejaVuSans-Bold-65" transform="translate(151.904297 0)"/>
     <use xlink:href="#DejaVuSans-Bold-72" transform="translate(219.726562 0)"/>
     <use xlink:href="#DejaVuSans-Bold-65" transform="translate(269.042969 0)"/>
     <use xlink:href="#DejaVuSans-Bold-6e" transform="translate(336.865234 0)"/>
     <use xlink:href="#DejaVuSans-Bold-63" transform="translate(408.056641 0)"/>
     <use xlink:href="#DejaVuSans-Bold-65" transform="translate(467.333984 0)"/>
     <use xlink:href="#DejaVuSans-Bold-20" transform="translate(535.15625 0)"/>
     <use xlink:href="#DejaVuSans-Bold-61" transform="translate(569.970703 0)"/>
     <use xlink:href="#DejaVuSans-Bold-6e" transform="translate(637.451172 0)"/>
     <use xlink:href="#DejaVuSans-Bold-64" transform="translate(708.642578 0)"/>
     <use xlink:href="#DejaVuSans-Bold-20" transform="translate(780.224609 0)"/>
     <use xlink:href="#DejaVuSans-Bold-65" transform="translate(815.039062 0)"/>
     <use xlink:href="#DejaVuSans-Bold-76" transform="translate(882.861328 0)"/>
     <use xlink:href="#DejaVuSans-Bold-61" transform="translate(948.046875 0)"/>
     <use xlink:href="#DejaVuSans-Bold-6c" transform="translate(1015.527344 0)"/>
     <use xlink:href="#DejaVuSans-Bold-75" transform="translate(1049.804688 0)"/>
     <use xlink:href="#DejaVuSans-Bold-61" transform="translate(1120.996094 0)"/>
     <use xlink:href="#DejaVuSans-Bold-74" transform="translate(1188.476562 0)"/>
     <use xlink:href="#DejaVuSans-Bold-69" transform="translate(1236.279297 0)"/>
     <use xlink:href="#DejaVuSans-Bold-6f" transform="translate(1270.556641 0)"/>
     <use xlink:href="#DejaVuSans-Bold-6e" transform="translate(1339.257812 0)"/>
     <use xlink:href="#DejaVuSans-Bold-20" transform="translate(1410.449219 0)"/>
     <use xlink:href="#DejaVuSans-Bold-72" transform="translate(1445.263672 0)"/>
     <use xlink:href="#DejaVuSans-Bold-65" transform="translate(1494.580078 0)"/>
     <use xlink:href="#DejaVuSans-Bold-6d" transform="translate(1562.402344 0)"/>
     <use xlink:href="#DejaVuSans-Bold-61" transform="translate(1666.601562 0)"/>
     <use xlink:href="#DejaVuSans-Bold-69" transform="translate(1734.082031 0)"/>
     <use xlink:href="#DejaVuSans-Bold-6e" transform="translate(1768.359375 0)"/>
     <use xlink:href="#DejaVuSans-Bold-20" transform="translate(1839.550781 0)"/>
     <use xlink:href="#DejaVuSans-Bold-69" transform="translate(1874.365234 0)"/>
     <use xlink:href="#DejaVuSans-Bold-73" transform="translate(1908.642578 0)"/>
     <use xlink:href="#DejaVuSans-Bold-6f" transform="translate(1968.164062 0)"/>
     <use xlink:href="#DejaVuSans-Bold-6c" transform="translate(2036.865234 0)"/>
     <use xlink:href="#DejaVuSans-Bold-61" transform="translate(2071.142578 0)"/>
     <use xlink:href="#DejaVuSans-Bold-74" transform="translate(2138.623047 0)"/>
     <use xlink:href="#DejaVuSans-Bold-65" transform="translate(2186.425781 0)"/>
     <use xlink:href="#DejaVuSans-Bold-64" transform="translate(2254.248047 0)"/>
     <use xlink:href="#DejaVuSans-Bold-20" transform="translate(2325.830078 0)"/>
     <use xlink:href="#DejaVuSans-Bold-75" transform="translate(2360.644531 0)"/>
     <use xlink:href="#DejaVuSans-Bold-6e" transform="translate(2431.835938 0)"/>
     <use xlink:href="#DejaVuSans-Bold-74" transform="translate(2503.027344 0)"/>
     <use xlink:href="#DejaVuSans-Bold-69" transform="translate(2550.830078 0)"/>
     <use xlink:href="#DejaVuSans-Bold-6c" transform="translate(2585.107422 0)"/>
     <use xlink:href="#DejaVuSans-Bold-20" transform="translate(2619.384766 0)"/>
     <use xlink:href="#DejaVuSans-Bold-73" transform="translate(2654.199219 0)"/>
     <use xlink:href="#DejaVuSans-Bold-74" transform="translate(2713.720703 0)"/>
     <use xlink:href="#DejaVuSans-Bold-72" transform="translate(2761.523438 0)"/>
     <use xlink:href="#DejaVuSans-Bold-75" transform="translate(2810.839844 0)"/>
     <use xlink:href="#DejaVuSans-Bold-63" transform="translate(2882.03125 0)"/>
     <use xlink:href="#DejaVuSans-Bold-74" transform="translate(2941.308594 0)"/>
     <use xlink:href="#DejaVuSans-Bold-75" transform="translate(2989.111328 0)"/>
     <use xlink:href="#DejaVuSans-Bold-72" transform="translate(3060.302734 0)"/>
     <use xlink:href="#DejaVuSans-Bold-61" transform="translate(3109.619141 0)"/>
     <use xlink:href="#DejaVuSans-Bold-6c" transform="translate(3177.099609 0)"/>
     <use xlink:href="#DejaVuSans-Bold-20" transform="translate(3211.376953 0)"/>
     <use xlink:href="#DejaVuSans-Bold-61" transform="translate(3246.191406 0)"/>
     <use xlink:href="#DejaVuSans-Bold-63" transform="translate(3313.671875 0)"/>
     <use xlink:href="#DejaVuSans-Bold-63" transform="translate(3372.949219 0)"/>
     <use xlink:href="#DejaVuSans-Bold-65" transform="translate(3432.226562 0)"/>
     <use xlink:href="#DejaVuSans-Bold-70" transform="translate(3500.048828 0)"/>
     <use xlink:href="#DejaVuSans-Bold-74" transform="translate(3571.630859 0)"/>
     <use xlink:href="#DejaVuSans-Bold-61" transform="translate(3619.433594 0)"/>
     <use xlink:href="#DejaVuSans-Bold-6e" transform="translate(3686.914062 0)"/>
     <use xlink:href="#DejaVuSans-Bold-63" transform="translate(3758.105469 0)"/>
     <use xlink:href="#DejaVuSans-Bold-65" transform="translate(3817.382812 0)"/>
    </g>
   </g>
   <g id="text_14">
    <!-- Solid arrows: confirmatory path   |   Dashed arrows: prespecified branch or descriptive stability path -->
    <g transform="translate(21.29442 34.406841) scale(0.075 -0.075)">
     <defs>
      <path id="DejaVuSans-7c" d="M 1344 4891 
L 1344 -1509 
L 813 -1509 
L 813 4891 
L 1344 4891 
z
" transform="scale(0.015625)"/>
     </defs>
     <use xlink:href="#DejaVuSans-53"/>
     <use xlink:href="#DejaVuSans-6f" transform="translate(63.476562 0)"/>
     <use xlink:href="#DejaVuSans-6c" transform="translate(124.658203 0)"/>
     <use xlink:href="#DejaVuSans-69" transform="translate(152.441406 0)"/>
     <use xlink:href="#DejaVuSans-64" transform="translate(180.224609 0)"/>
     <use xlink:href="#DejaVuSans-20" transform="translate(243.701172 0)"/>
     <use xlink:href="#DejaVuSans-61" transform="translate(275.488281 0)"/>
     <use xlink:href="#DejaVuSans-72" transform="translate(336.767578 0)"/>
     <use xlink:href="#DejaVuSans-72" transform="translate(376.130859 0)"/>
     <use xlink:href="#DejaVuSans-6f" transform="translate(414.994141 0)"/>
     <use xlink:href="#DejaVuSans-77" transform="translate(476.175781 0)"/>
     <use xlink:href="#DejaVuSans-73" transform="translate(557.962891 0)"/>
     <use xlink:href="#DejaVuSans-3a" transform="translate(610.0625 0)"/>
     <use xlink:href="#DejaVuSans-20" transform="translate(643.753906 0)"/>
     <use xlink:href="#DejaVuSans-63" transform="translate(675.541016 0)"/>
     <use xlink:href="#DejaVuSans-6f" transform="translate(730.521484 0)"/>
     <use xlink:href="#DejaVuSans-6e" transform="translate(791.703125 0)"/>
     <use xlink:href="#DejaVuSans-66" transform="translate(855.082031 0)"/>
     <use xlink:href="#DejaVuSans-69" transform="translate(890.287109 0)"/>
     <use xlink:href="#DejaVuSans-72" transform="translate(918.070312 0)"/>
     <use xlink:href="#DejaVuSans-6d" transform="translate(957.433594 0)"/>
     <use xlink:href="#DejaVuSans-61" transform="translate(1054.845703 0)"/>
     <use xlink:href="#DejaVuSans-74" transform="translate(1116.125 0)"/>
     <use xlink:href="#DejaVuSans-6f" transform="translate(1155.333984 0)"/>
     <use xlink:href="#DejaVuSans-72" transform="translate(1216.515625 0)"/>
     <use xlink:href="#DejaVuSans-79" transform="translate(1257.628906 0)"/>
     <use xlink:href="#DejaVuSans-20" transform="translate(1316.808594 0)"/>
     <use xlink:href="#DejaVuSans-70" transform="translate(1348.595703 0)"/>
     <use xlink:href="#DejaVuSans-61" transform="translate(1412.072266 0)"/>
     <use xlink:href="#DejaVuSans-74" transform="translate(1473.351562 0)"/>
     <use xlink:href="#DejaVuSans-68" transform="translate(1512.560547 0)"/>
     <use xlink:href="#DejaVuSans-20" transform="translate(1575.939453 0)"/>
     <use xlink:href="#DejaVuSans-20" transform="translate(1607.726562 0)"/>
     <use xlink:href="#DejaVuSans-20" transform="translate(1639.513672 0)"/>
     <use xlink:href="#DejaVuSans-7c" transform="translate(1671.300781 0)"/>
     <use xlink:href="#DejaVuSans-20" transform="translate(1704.992188 0)"/>
     <use xlink:href="#DejaVuSans-20" transform="translate(1736.779297 0)"/>
     <use xlink:href="#DejaVuSans-20" transform="translate(1768.566406 0)"/>
     <use xlink:href="#DejaVuSans-44" transform="translate(1800.353516 0)"/>
     <use xlink:href="#DejaVuSans-61" transform="translate(1877.355469 0)"/>
     <use xlink:href="#DejaVuSans-73" transform="translate(1938.634766 0)"/>
     <use xlink:href="#DejaVuSans-68" transform="translate(1990.734375 0)"/>
     <use xlink:href="#DejaVuSans-65" transform="translate(2054.113281 0)"/>
     <use xlink:href="#DejaVuSans-64" transform="translate(2115.636719 0)"/>
     <use xlink:href="#DejaVuSans-20" transform="translate(2179.113281 0)"/>
     <use xlink:href="#DejaVuSans-61" transform="translate(2210.900391 0)"/>
     <use xlink:href="#DejaVuSans-72" transform="translate(2272.179688 0)"/>
     <use xlink:href="#DejaVuSans-72" transform="translate(2311.542969 0)"/>
     <use xlink:href="#DejaVuSans-6f" transform="translate(2350.40625 0)"/>
     <use xlink:href="#DejaVuSans-77" transform="translate(2411.587891 0)"/>
     <use xlink:href="#DejaVuSans-73" transform="translate(2493.375 0)"/>
     <use xlink:href="#DejaVuSans-3a" transform="translate(2545.474609 0)"/>
     <use xlink:href="#DejaVuSans-20" transform="translate(2579.166016 0)"/>
     <use xlink:href="#DejaVuSans-70" transform="translate(2610.953125 0)"/>
     <use xlink:href="#DejaVuSans-72" transform="translate(2674.429688 0)"/>
     <use xlink:href="#DejaVuSans-65" transform="translate(2713.292969 0)"/>
     <use xlink:href="#DejaVuSans-73" transform="translate(2774.816406 0)"/>
     <use xlink:href="#DejaVuSans-70" transform="translate(2826.916016 0)"/>
     <use xlink:href="#DejaVuSans-65" transform="translate(2890.392578 0)"/>
     <use xlink:href="#DejaVuSans-63" transform="translate(2951.916016 0)"/>
     <use xlink:href="#DejaVuSans-69" transform="translate(3006.896484 0)"/>
     <use xlink:href="#DejaVuSans-66" transform="translate(3034.679688 0)"/>
     <use xlink:href="#DejaVuSans-69" transform="translate(3069.884766 0)"/>
     <use xlink:href="#DejaVuSans-65" transform="translate(3097.667969 0)"/>
     <use xlink:href="#DejaVuSans-64" transform="translate(3159.191406 0)"/>
     <use xlink:href="#DejaVuSans-20" transform="translate(3222.667969 0)"/>
     <use xlink:href="#DejaVuSans-62" transform="translate(3254.455078 0)"/>
     <use xlink:href="#DejaVuSans-72" transform="translate(3317.931641 0)"/>
     <use xlink:href="#DejaVuSans-61" transform="translate(3359.044922 0)"/>
     <use xlink:href="#DejaVuSans-6e" transform="translate(3420.324219 0)"/>
     <use xlink:href="#DejaVuSans-63" transform="translate(3483.703125 0)"/>
     <use xlink:href="#DejaVuSans-68" transform="translate(3538.683594 0)"/>
     <use xlink:href="#DejaVuSans-20" transform="translate(3602.0625 0)"/>
     <use xlink:href="#DejaVuSans-6f" transform="translate(3633.849609 0)"/>
     <use xlink:href="#DejaVuSans-72" transform="translate(3695.03125 0)"/>
     <use xlink:href="#DejaVuSans-20" transform="translate(3736.144531 0)"/>
     <use xlink:href="#DejaVuSans-64" transform="translate(3767.931641 0)"/>
     <use xlink:href="#DejaVuSans-65" transform="translate(3831.408203 0)"/>
     <use xlink:href="#DejaVuSans-73" transform="translate(3892.931641 0)"/>
     <use xlink:href="#DejaVuSans-63" transform="translate(3945.03125 0)"/>
     <use xlink:href="#DejaVuSans-72" transform="translate(4000.011719 0)"/>
     <use xlink:href="#DejaVuSans-69" transform="translate(4041.125 0)"/>
     <use xlink:href="#DejaVuSans-70" transform="translate(4068.908203 0)"/>
     <use xlink:href="#DejaVuSans-74" transform="translate(4132.384766 0)"/>
     <use xlink:href="#DejaVuSans-69" transform="translate(4171.59375 0)"/>
     <use xlink:href="#DejaVuSans-76" transform="translate(4199.376953 0)"/>
     <use xlink:href="#DejaVuSans-65" transform="translate(4258.556641 0)"/>
     <use xlink:href="#DejaVuSans-20" transform="translate(4320.080078 0)"/>
     <use xlink:href="#DejaVuSans-73" transform="translate(4351.867188 0)"/>
     <use xlink:href="#DejaVuSans-74" transform="translate(4403.966797 0)"/>
     <use xlink:href="#DejaVuSans-61" transform="translate(4443.175781 0)"/>
     <use xlink:href="#DejaVuSans-62" transform="translate(4504.455078 0)"/>
     <use xlink:href="#DejaVuSans-69" transform="translate(4567.931641 0)"/>
     <use xlink:href="#DejaVuSans-6c" transform="translate(4595.714844 0)"/>
     <use xlink:href="#DejaVuSans-69" transform="translate(4623.498047 0)"/>
     <use xlink:href="#DejaVuSans-74" transform="translate(4651.28125 0)"/>
     <use xlink:href="#DejaVuSans-79" transform="translate(4690.490234 0)"/>
     <use xlink:href="#DejaVuSans-20" transform="translate(4749.669922 0)"/>
     <use xlink:href="#DejaVuSans-70" transform="translate(4781.457031 0)"/>
     <use xlink:href="#DejaVuSans-61" transform="translate(4844.933594 0)"/>
     <use xlink:href="#DejaVuSans-74" transform="translate(4906.212891 0)"/>
     <use xlink:href="#DejaVuSans-68" transform="translate(4945.421875 0)"/>
    </g>
   </g>
  </g>
 </g>
</svg>
